<svg xmlns="http://www.w3.org/2000/svg" viewBox="0 0 100 100">
  <g id="logo" transform="translate(-921.002 -22.999)">
    <path id="Path_244" data-name="Path 244" d="M111.945,100.088a11.274,11.274,0,0,0-1.511-.11c-.31,0-.648.014-1.053.052l-.257.024c-.372.043-.7.091-.987.148l-.162.038c-.281.062-.553.133-.82.21l-.3.086c-.276.091-.562.2-.839.31-.067.029-.124.057-.186.081l-.129.057c-.191.086-.377.176-.558.267l-.114.062c-.081.043-.162.081-.243.124-.229.129-.453.267-.672.41-.152.1-.291.2-.429.3-.1.071-.2.148-.3.224-.281.215-.553.448-.82.691l-.1.086c-.191.176-.338.329-.486.486l-.1.114a11.016,11.016,0,0,0-.81.991l-.043.057a11.662,11.662,0,0,0-1.068,1.821,13.771,13.771,0,0,1-1.235,12.365,13.845,13.845,0,0,1-11.707,6.459c-.1,0-.2-.014-.3-.014a13.85,13.85,0,0,1-2.75-27.36c.253-.5.515-.991.8-1.478a29.789,29.789,0,0,1,3.99-5.339l.052-.052a29.616,29.616,0,0,1,3.189-2.927l.124-.1a30.021,30.021,0,0,1,3.551-2.388l.167-.1.129-.072a27.538,27.538,0,1,0,15.968,14.471" transform="translate(861.44 -61.12)" fill="#fff"/>
    <path id="Path_245" data-name="Path 245" d="M136.141,84.12A27.459,27.459,0,0,0,111.2,123.063a11.341,11.341,0,0,0,1.282.1,2.307,2.307,0,0,1,.253.014h0a11.551,11.551,0,0,0,10.468-6.645,13.855,13.855,0,1,1,15.978,8.561c-.253.5-.515.991-.8,1.473a29.632,29.632,0,0,1-11.2,10.968,27.46,27.46,0,1,0,8.957-53.42" transform="translate(835.734 -61.12)" fill="#fff"/>
  </g>
</svg>
