<svg xmlns="http://www.w3.org/2000/svg">
	<defs>
		<style>
		.img { display: none }
		.img:target { display: inline }
		</style>
	</defs>
    <!-- APPLICATION LOGO -->
	<svg viewBox="0 0 78.328 54.921">
		<g id="logo" transform="translate(-921.002 -22.999)" class="img">
            <path d="M111.945,100.088a11.274,11.274,0,0,0-1.511-.11c-.31,0-.648.014-1.053.052l-.257.024c-.372.043-.7.091-.987.148l-.162.038c-.281.062-.553.133-.82.21l-.3.086c-.276.091-.562.2-.839.31-.067.029-.124.057-.186.081l-.129.057c-.191.086-.377.176-.558.267l-.114.062c-.081.043-.162.081-.243.124-.229.129-.453.267-.672.41-.152.1-.291.2-.429.3-.1.071-.2.148-.3.224-.281.215-.553.448-.82.691l-.1.086c-.191.176-.338.329-.486.486l-.1.114a11.016,11.016,0,0,0-.81.991l-.043.057a11.662,11.662,0,0,0-1.068,1.821,13.771,13.771,0,0,1-1.235,12.365,13.845,13.845,0,0,1-11.707,6.459c-.1,0-.2-.014-.3-.014a13.85,13.85,0,0,1-2.75-27.36c.253-.5.515-.991.8-1.478a29.789,29.789,0,0,1,3.99-5.339l.052-.052a29.616,29.616,0,0,1,3.189-2.927l.124-.1a30.021,30.021,0,0,1,3.551-2.388l.167-.1.129-.072a27.538,27.538,0,1,0,15.968,14.471" transform="translate(861.44 -61.12)" fill="#fff"/>
            <path d="M136.141,84.12A27.459,27.459,0,0,0,111.2,123.063a11.341,11.341,0,0,0,1.282.1,2.307,2.307,0,0,1,.253.014h0a11.551,11.551,0,0,0,10.468-6.645,13.855,13.855,0,1,1,15.978,8.561c-.253.5-.515.991-.8,1.473a29.632,29.632,0,0,1-11.2,10.968,27.46,27.46,0,1,0,8.957-53.42" transform="translate(835.734 -61.12)" fill="#fff"/>
        </g>
	</svg>
    <!-- USERNAME --> 
	<svg viewBox="0 0 30 30">
        <g id="username" class="img">
        <path  d="M20.4,16.512a1.638,1.638,0,1,0,3.264,0c0-1.246-1.144-1.246-1.632-1.246S20.4,15.266,20.4,16.512Zm2.385,0a.764.764,0,1,1-1.506,0c0-.252,0-.367.753-.367S22.785,16.26,22.785,16.512ZM17.83,15.391v.635a.439.439,0,1,0,.879,0v-.635a.439.439,0,1,0-.879,0ZM30.025,21.4a1.584,1.584,0,0,0-2.237.023,2.42,2.42,0,0,1-1,.6,9.57,9.57,0,0,0,.859-1.331.44.44,0,0,0-.776-.413,8.983,8.983,0,0,1-1.408,1.946.434.434,0,0,0-.084.087,10.66,10.66,0,0,1-1.907,1.549.436.436,0,0,0-.115.073,13.137,13.137,0,0,1-4.541,1.734,5.373,5.373,0,0,1-2.979-1.588,1.583,1.583,0,0,0-1.5-2.183,12.1,12.1,0,0,1-1.119-5.154c0-3.982,1.922-8.308,5.6-8.924,5.13.961,8.958,4.6,8.958,8.924a7.337,7.337,0,0,1-.208,1.733.439.439,0,1,0,.854.208,8.212,8.212,0,0,0,.233-1.941,9.116,9.116,0,0,0-3.709-7.141q-.459-.365-.955-.686A5.221,5.221,0,0,0,20.557.005a5.217,5.217,0,0,0-5.463,5.211V6.73a15.348,15.348,0,0,0-2.332.331V5.217A5.217,5.217,0,0,0,2.334,4.971a5.241,5.241,0,0,0,.484,2.455.439.439,0,1,0,.8-.373,4.3,4.3,0,0,1-.4-2.042A4.364,4.364,0,0,1,7.34.883a4.338,4.338,0,0,1,4.543,4.333V8.924a.631.631,0,0,1-.63.63H7.545a4.343,4.343,0,0,1-2.769-1,.439.439,0,0,0-.561.676,5.22,5.22,0,0,0,2.258,1.089,9.533,9.533,0,0,0-2.38,3.561L1.246,15.476a1.459,1.459,0,0,0,0,2.546l2.845,1.594a9.417,9.417,0,0,0,2.028,3.205q.353.373.749.718a3.812,3.812,0,0,1-.924,2.669,1.582,1.582,0,0,0,2.27,2.205,6.207,6.207,0,0,0,1.568-2.988,14.1,14.1,0,0,0,1.956.747l.013,0q.2.059.4.113a4.959,4.959,0,0,0,1.332,3.223,1.582,1.582,0,0,0,2.237.05,1.584,1.584,0,0,0,.05-2.237,1.564,1.564,0,0,1-.331-.538c.225.01.451.015.675.015a15.6,15.6,0,0,0,2.77-.247l.03-.006a14.1,14.1,0,0,0,4.755-1.773,5.376,5.376,0,0,0,2.346.527,5.665,5.665,0,0,0,4.035-1.663A1.584,1.584,0,0,0,30.025,21.4ZM3.748,18.416,1.676,17.255a.58.58,0,0,1,0-1.012l2.073-1.161a8.229,8.229,0,0,0,0,3.334Zm12.226-13.2A4.338,4.338,0,0,1,20.517.883,4.338,4.338,0,0,1,23.2,8.453a14.06,14.06,0,0,0-4.047-1.46.391.391,0,0,0,.039-.034L22.054,4.1a.439.439,0,0,0-.621-.622L18.57,6.337a.439.439,0,0,0-.062.542A15.725,15.725,0,0,0,16.112,6.7h-.139ZM7.584,27.8a.7.7,0,0,1-1.009-.98,4.228,4.228,0,0,0,1.111-2.631,12.634,12.634,0,0,0,1.287.82A5.466,5.466,0,0,1,7.584,27.8Zm-.826-5.583a8.508,8.508,0,0,1-1.878-3.01.435.435,0,0,0-.025-.073,7.358,7.358,0,0,1,0-4.777.433.433,0,0,0,.021-.058,8.878,8.878,0,0,1,2.788-3.866H8.672a13.086,13.086,0,0,0-1.566,6.315,13.535,13.535,0,0,0,1.137,5.473A9.766,9.766,0,0,0,9.5,24.3,11.015,11.015,0,0,1,6.758,22.217Zm5.273,3.124a7.345,7.345,0,0,1-2.986-3.482,12.633,12.633,0,0,1-1.059-5.11A11.932,11.932,0,0,1,9.7,10.433h1.557a1.511,1.511,0,0,0,1.509-1.509V7.962a14.572,14.572,0,0,1,3.35-.386c.231,0,.461.006.688.016a7.434,7.434,0,0,0-2.859,2.869,12.57,12.57,0,0,0-1.605,6.288,13.041,13.041,0,0,0,1.153,5.422,1.576,1.576,0,0,0-.462.479,6.393,6.393,0,0,0-.863,2.731Zm3.081,3.584a.7.7,0,0,1-.994-.022,4.223,4.223,0,0,1-1.1-3.007,5.591,5.591,0,0,1,.761-2.783.7.7,0,0,1,.408-.305l.011,0,.018-.005a.714.714,0,0,1,.161-.019.7.7,0,0,1,.6,1.075c-.016.025-.031.052-.047.079h0c-.494.87-.908,2.825.211,4A.7.7,0,0,1,15.111,28.926Zm1-3c-.27,0-.542-.008-.812-.023,0-.046,0-.091.005-.135a3.7,3.7,0,0,1,.148-.827,6.527,6.527,0,0,0,1.349.968Q16.459,25.921,16.112,25.922Zm13.308-2.9a4.781,4.781,0,0,1-3.407,1.4,4.6,4.6,0,0,1-1.463-.235,11.363,11.363,0,0,0,1.36-1.163,3.367,3.367,0,0,0,2.5-.985.7.7,0,1,1,1.005.984Zm-4.067-7.633v.635a.439.439,0,1,0,.879,0v-.635a.439.439,0,0,0-.879,0ZM8.977,7.087a.439.439,0,0,0,.311-.75L6.425,3.475A.439.439,0,0,0,5.8,4.1L8.666,6.959A.439.439,0,0,0,8.977,7.087Zm0,0" transform="translate(-0.5)" fill="#fff"/>
        </g>
    </svg>

    <!-- DD ARROW --> 
	<svg viewBox="0 0 14.143 14.143">
     <g id="dd-arrow" class="img">
     <path id="ic_call_received_24px" class="cls-1" d="M15,4.94,14.06,4,6.333,11.727V7.333H5V14h6.667V12.667H7.273Z" transform="translate(-6.363 7.778) rotate(-45)" fill="#fff"/>
     </g>
    </svg>


    <!-- DASHBAORD --> 
	<svg viewBox="0 0 512 512">
     <g id="dashboard" class="img">
        <path d="M184.841,267.407c4.142,0,7.5-3.358,7.5-7.5v-12.879c0-4.142-3.358-7.5-7.5-7.5s-7.5,3.358-7.5,7.5v12.879   C177.341,264.049,180.699,267.407,184.841,267.407z"/>
	    <path d="M327.159,267.407c4.142,0,7.5-3.358,7.5-7.5v-12.879c0-4.142-3.358-7.5-7.5-7.5s-7.5,3.358-7.5,7.5v12.879   C319.659,264.049,323.017,267.407,327.159,267.407z"/>
	    <path d="M256,274.282c9.009,0,17.468-3.767,23.209-10.334c2.726-3.119,2.408-7.856-0.71-10.583   c-3.119-2.726-7.857-2.408-10.583,0.71c-2.893,3.309-7.236,5.207-11.917,5.207s-9.024-1.898-11.917-5.207   c-2.727-3.119-7.464-3.437-10.583-0.71s-3.437,7.464-0.71,10.583C238.531,270.515,246.991,274.282,256,274.282z"/>
	    <path d="M256,512c63.719,0,124.724-23.502,171.777-66.179c3.068-2.783,3.3-7.526,0.517-10.594c-2.782-3.068-7.525-3.3-10.594-0.517   C373.412,474.878,315.986,497,256,497c-64.374,0-124.894-25.069-170.413-70.588C40.068,380.893,15,320.373,15,256   c0-58.783,21.351-115.337,60.118-159.247c2.742-3.105,2.447-7.845-0.658-10.586c-3.104-2.742-7.845-2.447-10.586,0.658   C22.684,133.478,0,193.558,0,256c0,68.379,26.629,132.667,74.981,181.019C123.333,485.371,187.62,512,256,512z"/>
	    <path d="M95.642,76.102C139.729,36.7,196.678,15,256,15c64.373,0,124.894,25.068,170.413,70.587   C471.932,131.107,497,191.627,497,256c0,58.144-20.929,114.223-58.932,157.906c-2.719,3.125-2.39,7.862,0.735,10.581   c3.054,2.656,7.886,2.363,10.581-0.736C489.763,377.337,512,317.763,512,256c0-68.379-26.629-132.667-74.981-181.019   C388.667,26.629,324.38,0,256,0C192.986,0,132.486,23.055,85.646,64.917c-3.088,2.76-3.354,7.502-0.594,10.59   C87.813,78.596,92.553,78.862,95.642,76.102z"/>
	    <path d="M88.578,365.729C124.881,422.03,189.109,456.532,256,456.532c52.934,0,101.134-20.625,137.011-54.25   c0.02-0.018,0.042-0.034,0.062-0.052c0.049-0.046,0.096-0.094,0.145-0.14c51.979-48.871,74.654-125.5,57.335-194.735   c-0.048-0.192-0.093-0.385-0.141-0.577c-22-86.853-100.817-151.31-194.412-151.31c-93.613,0-172.442,64.481-194.424,151.359   c-0.051,0.204-0.099,0.409-0.15,0.614C48.03,261.156,58.773,319.506,88.578,365.729z M256,441.532   c-46.137,0-88.391-16.933-120.884-44.903c18.221-15.982,54.97-37.462,120.884-37.462s102.663,21.479,120.884,37.462   C344.391,424.599,302.137,441.532,256,441.532z M416.882,348.335l-15.552-21.451c-14.063-19.397-21.497-42.314-21.497-66.273   c0-7.637,7.303-13.568,14.762-12.028l46.908,9.678C441.11,291.005,432.205,321.739,416.882,348.335z M256,70.468   c77.695,0,144.378,48.012,171.967,115.919C389.474,165.546,327.14,139.5,256,139.5c-71.138,0-133.473,26.047-171.967,46.888   C111.622,118.48,178.304,70.468,256,70.468z M71.296,238.517c0.978-10.401,2.836-20.726,5.56-30.812   C111.378,187.129,178.38,154.5,256,154.5c77.621,0,144.623,32.629,179.143,53.205c0.065,0.243,0.133,0.485,0.198,0.729   c2.979,11.262,4.901,22.799,5.719,34.42l-43.434-8.96c-16.677-3.439-32.792,9.686-32.792,26.718   c0,27.143,8.421,53.104,24.353,75.078l19.031,26.25c-6.063,8.684-12.871,16.856-20.325,24.4   c-8.804-7.898-22.051-17.472-40.665-25.431c-25.982-11.108-56.675-16.741-91.227-16.741s-65.245,5.633-91.227,16.741   c-18.614,7.959-31.862,17.533-40.665,25.432c-7.452-7.541-14.261-15.715-20.326-24.4l19.032-26.25   c15.932-21.976,24.353-47.937,24.353-75.078c0-16.91-16.249-30.131-32.792-26.718l-43.435,8.96   C71.042,241.407,71.16,239.961,71.296,238.517z M117.405,248.583c7.515-1.551,14.762,4.348,14.762,12.027   c0,23.958-7.434,46.875-21.497,66.273l-15.552,21.45c-15.323-26.595-24.228-57.329-24.622-90.074L117.405,248.583z"/>
     </g>
    </svg>

    <!-- SYSTEM --> 
	<svg viewBox="0 0 512 512">
     <g id="system" class="img">
        <path d="M428.785,111.865H83.215c-4.142,0-7.5,3.358-7.5,7.5v215.03c0,4.142,3.358,7.5,7.5,7.5h46.912c4.142,0,7.5-3.358,7.5-7.5
			c0-4.142-3.358-7.5-7.5-7.5H90.715v-200.03h330.57v200.03H160.127c-4.142,0-7.5,3.358-7.5,7.5c0,4.142,3.358,7.5,7.5,7.5h268.658
			c4.142,0,7.5-3.358,7.5-7.5v-215.03C436.285,115.224,432.927,111.865,428.785,111.865z"/>
        <path d="M164.754,209.391c-4.142,0-7.5,3.357-7.5,7.5v16.514c0,4.142,3.358,7.5,7.5,7.5c4.142,0,7.5-3.358,7.5-7.5v-16.514
			C172.254,212.748,168.896,209.391,164.754,209.391z"/>
        <path d="M347.246,209.391c-4.142,0-7.5,3.357-7.5,7.5v16.514c0,4.142,3.358,7.5,7.5,7.5c4.142,0,7.5-3.358,7.5-7.5v-16.514
			C354.746,212.748,351.388,209.391,347.246,209.391z"/>
        <path d="M283.457,226.609c-3.119-2.726-7.857-2.408-10.583,0.711c-4.111,4.703-10.262,7.4-16.875,7.4
			c-6.613,0-12.764-2.697-16.874-7.4c-2.727-3.119-7.464-3.437-10.583-0.711s-3.437,7.464-0.711,10.583
			c6.961,7.962,17.227,12.528,28.169,12.528c10.941,0,21.208-4.566,28.167-12.528C286.893,234.073,286.575,229.336,283.457,226.609z
			"/>
        <circle cx="256" cy="98.51" r="7.119"/>
        <path d="M505.154,377.419c-4.415-4.415-10.284-6.847-16.525-6.847h-8.662V112.956c0-24.687-20.084-44.771-44.771-44.771h-42.402
			c-4.142,0-7.5,3.358-7.5,7.5c0,4.142,3.358,7.5,7.5,7.5h42.402c16.416,0,29.771,13.355,29.771,29.771v257.618H47.033V112.956
			c0-16.416,13.355-29.771,29.771-29.771h285.989c4.142,0,7.5-3.358,7.5-7.5c0-4.142-3.358-7.5-7.5-7.5H76.805
			c-24.687,0-44.771,20.084-44.771,44.771v257.618h-8.662C10.484,370.573,0,381.062,0,393.953c0,13.32,5.186,25.842,14.603,35.26
			c9.416,9.416,21.938,14.602,35.259,14.602h412.277c27.494,0,49.861-22.368,49.861-49.861
			C512,387.706,509.569,381.834,505.154,377.419z M331.623,385.574c-0.056,0.112-0.358,0.721-0.46,0.909
			c-2.591,4.759-6.783,8.66-11.732,10.917c-3.291,1.5-6.91,2.295-10.527,2.295H203.097c-3.83,0-7.696-0.902-11.137-2.58
			c-5.008-2.442-9.126-6.542-11.581-11.541H331.623z M462.139,428.815H49.862c-9.314,0-18.07-3.625-24.652-10.208
			C18.625,412.023,15,403.268,15,393.953c0-4.621,3.755-8.381,8.371-8.381h140.961c0.038,0.133,0.083,0.262,0.122,0.395
			c1.894,6.332,5.393,12.179,10.053,16.862c4.587,4.61,10.26,8.025,16.45,10c3.879,1.238,7.975,1.862,12.046,1.862
			c0.031,0,0.062,0.002,0.093,0.002h105.807c0.031,0,0.062-0.002,0.093-0.002c6.854-0.017,14.209-1.724,20.073-5.389
			c5.534-3.186,10.159-7.66,13.683-12.97c2.187-3.295,3.827-6.961,4.917-10.76c0,0,140.934,0,140.96,0
			c4.571,0,8.371,3.819,8.371,8.381C497,413.177,481.361,428.815,462.139,428.815z"/>
     </g>
    </svg>

    <!-- PLUGINS -->
    <svg viewBox="0 0 512 512">
        <g id="plugins" class="img">
            <path d="M212.988,286.865v-9.142c0-4.142-3.358-7.5-7.5-7.5s-7.5,3.358-7.5,7.5v9.142c0,4.142,3.358,7.5,7.5,7.5   S212.988,291.007,212.988,286.865z"/>
            <path d="M314.012,286.865v-9.142c0-4.142-3.358-7.5-7.5-7.5s-7.5,3.358-7.5,7.5v9.142c0,4.142,3.358,7.5,7.5,7.5   S314.012,291.007,314.012,286.865z"/>
            <path d="M256,299.244c7.023,0,13.626-2.945,18.114-8.08c2.726-3.119,2.407-7.856-0.711-10.583s-7.857-2.408-10.583,0.711   c-1.64,1.875-4.125,2.951-6.82,2.951c-2.694,0-5.181-1.076-6.82-2.952c-2.726-3.118-7.464-3.437-10.583-0.71   c-3.118,2.726-3.437,7.464-0.71,10.583C242.375,296.3,248.977,299.244,256,299.244z"/>
            <path d="M512,257.634c0-41.388-10.729-83.036-31.026-120.442c-1.976-3.64-6.529-4.991-10.169-3.015   c-3.641,1.975-4.991,6.528-3.015,10.169C486.9,179.563,497,218.737,497,257.634c0,82.61-43.625,161.071-113.848,204.764   c-7.606,4.729-17.643,2.394-22.373-5.209c-4.731-7.604-2.394-17.64,5.21-22.372c60.773-37.818,98.526-105.71,98.526-177.182   c0-27.862-5.726-55.107-17.02-80.98C414.354,100.725,336.291,47.953,252.943,49.14c-55.051,0.79-106.683,22.829-145.384,62.057   c-38.74,39.266-60.074,91.271-60.074,146.438c0,100.433,71.539,186.643,170.103,204.987c11.381,2.119,22.171-7.22,22.171-18.682   v-69.392c10.727,1.841,21.758,1.839,32.484,0c0,0,0,69.307,0,69.392c0,31.156-29.96,56.325-60.6,50.617   C97.7,473.349,15,373.709,15,257.634c0-63.76,24.659-123.868,69.434-169.251c44.73-45.339,104.41-70.811,168.044-71.724   c79.028-1.134,153.903,38.095,199.5,102.316c2.398,3.378,7.08,4.171,10.458,1.773c3.377-2.398,4.171-7.08,1.773-10.457   C415.816,42.138,336.097,0.409,252.261,1.661c-67.596,0.97-130.991,28.027-178.505,76.187C26.193,126.056,0,189.905,0,257.634   c0,123.298,87.854,229.14,208.897,251.67c39.796,7.406,78.345-24.91,78.345-65.364v-73.273   c37.276-12.965,64.105-48.448,64.105-90.085v-38.807c9.637-3.162,16.617-12.238,16.617-22.918v-19.525   c0-13.298-10.819-24.117-24.117-24.117h-10.438v-55.416c0-15.118-12.3-27.418-27.418-27.418c-15.119,0-27.418,12.3-27.418,27.418   v55.416h-45.146v-55.416c0-15.118-12.3-27.418-27.418-27.418s-27.418,12.3-27.418,27.418v55.416h-10.438   c-13.298,0-24.117,10.819-24.117,24.117v19.525c0,10.68,6.981,19.756,16.617,22.918v38.807c0,15.449,3.788,30.802,10.955,44.398   c1.932,3.665,6.469,5.07,10.132,3.138c3.665-1.932,5.069-6.468,3.138-10.132c-6.034-11.449-9.225-24.383-9.225-37.404v-37.607   h160.695v37.607c0,37.33-25.592,68.793-60.151,77.774c-12.644,3.29-26.091,3.406-38.802,0.399   c-13.18-3.128-25.429-9.564-35.602-18.868c-3.057-2.795-7.8-2.584-10.596,0.473c-2.795,3.057-2.583,7.8,0.473,10.596   c9.679,8.852,20.945,15.502,33.088,19.711c0,0,0,73.183,0,73.273c0,2.233-2.139,4.361-4.425,3.935   c-91.464-17.023-157.849-97.031-157.849-190.241c0-51.197,19.8-99.462,55.752-135.903c35.917-36.406,83.833-56.86,134.92-57.593   c77.346-1.11,149.862,48.115,180.593,118.517c10.462,23.968,15.767,49.195,15.767,74.979c0,66.332-35.042,129.344-91.451,164.446   c-14.625,9.101-19.121,28.404-10.021,43.032c9.099,14.624,28.402,19.119,43.032,10.022C465.665,428.725,512,345.384,512,257.634z    M293.573,119.799c0-6.847,5.57-12.418,12.418-12.418c6.847,0,12.418,5.571,12.418,12.418v55.416h-24.836V119.799z    M193.591,119.799c0-6.847,5.571-12.418,12.418-12.418s12.418,5.571,12.418,12.418v55.416h-24.836V119.799z M159.035,199.332   c0-5.027,4.09-9.117,9.117-9.117h175.695c5.027,0,9.117,4.09,9.117,9.117v19.525c0,5.026-4.087,9.115-9.112,9.117   c-0.002,0-0.003,0-0.005,0H168.152c-0.001,0-0.003,0-0.005,0c-5.025-0.003-9.112-4.092-9.112-9.117V199.332z"/>
        </g>
    </svg>

    <!-- TAGS -->
    <svg viewBox="0 0 512 512">
        <g id="tags" class="img">
            <path d="M165.565,267.156v15.01c0,4.143,3.358,7.5,7.5,7.5s7.5-3.357,7.5-7.5v-15.01c0-4.142-3.358-7.5-7.5-7.5   S165.565,263.014,165.565,267.156z"/>
	        <path d="M331.434,267.156v15.01c0,4.143,3.358,7.5,7.5,7.5s7.5-3.357,7.5-7.5v-15.01c0-4.142-3.358-7.5-7.5-7.5   S331.434,263.014,331.434,267.156z"/>
	        <path d="M270.822,276.185c-3.606,4.126-9.009,6.493-14.823,6.493c-5.813,0-11.216-2.367-14.823-6.493   c-2.726-3.118-7.464-3.437-10.583-0.71s-3.437,7.464-0.71,10.583c6.455,7.385,15.974,11.621,26.116,11.621   c10.142,0,19.661-4.236,26.117-11.621c2.726-3.118,2.408-7.856-0.711-10.583S273.549,273.067,270.822,276.185z"/>
	        <path d="M509.431,219.655c-0.235-1.512-0.953-2.939-2.002-4.049c0,0-200.817-209.176-200.84-209.2   c-1.063-1.107-2.472-1.84-3.967-2.16c-0.03-0.006-0.059-0.017-0.089-0.022C287.271,1.421,271.615,0,256,0   c-55.525,0-108.351,17.485-152.765,50.566c-3.322,2.474-4.009,7.173-1.535,10.495c2.475,3.322,7.174,4.009,10.495,1.535   C154,31.458,203.728,15,256,15c11.243,0,22.506,0.782,33.607,2.329c-7.018,14.259-11.832,29.59-14.305,45.286   c-0.018,0.116-0.037,0.233-0.055,0.35c-6.417-0.636-12.863-0.962-19.247-0.962C149.029,62.002,62.002,149.029,62.002,256   S149.029,449.998,256,449.998c48.454,0,94.847-17.963,130.635-50.579c3.062-2.79,3.282-7.534,0.492-10.596   c-2.791-3.062-7.534-3.281-10.595-0.491c-33.02,30.093-75.825,46.666-120.532,46.666C157.3,434.998,77.002,354.7,77.002,256   S157.3,77.002,256,77.002c5.85,0,11.758,0.292,17.642,0.871c-0.001,0.014-0.001,0.028-0.002,0.042   c-0.184,3.115-0.28,6.244-0.28,9.364c0,87.32,71.04,158.36,158.36,158.36c0.984,0,1.977-0.01,2.975-0.029   c0.201,3.48,0.303,6.955,0.303,10.389c0,40.864-13.415,79.342-38.793,111.275c-2.577,3.243-2.038,7.961,1.205,10.538   c3.243,2.577,7.96,2.038,10.538-1.205c27.509-34.613,42.05-76.319,42.05-120.608c0-3.767-0.126-7.578-0.35-11.392   c0.058-0.007,0.116-0.014,0.174-0.021c15.013-1.73,29.72-5.712,43.681-11.474c0.777-0.329,1.556-0.651,2.328-0.992   C496.607,240.02,497,248.016,497,256c0,64.372-25.069,124.892-70.588,170.412S320.372,497,256,497s-124.892-25.069-170.412-70.588   S15,320.373,15,256c0-33.585,6.774-66.082,20.135-96.586c12.908-29.47,31.322-55.712,54.73-77.996   c3-2.856,3.117-7.603,0.261-10.603c-2.855-3-7.604-3.117-10.603-0.262c-24.86,23.665-44.417,51.537-58.129,82.843   C7.198,185.81,0,220.331,0,256c0,68.379,26.629,132.666,74.981,181.018C123.334,485.371,187.621,512,256,512   s132.666-26.629,181.018-74.982C485.371,388.666,512,324.379,512,256c0-12.169-0.86-24.369-2.556-36.258   C509.44,219.713,509.436,219.684,509.431,219.655z M288.36,87.28c0-21.604,5.006-43.489,14.569-63.028l186.513,194.277   c-0.568,0.25-1.136,0.497-1.708,0.739c-17.664,7.491-36.828,11.372-56.015,11.372C352.671,230.64,288.36,166.329,288.36,87.28z"/>
        </g>
    </svg>

    <!-- METRICS -->
    <svg viewBox="0 0 512 512">
        <g id="metrics" class="img">
           <path d="m74.722656 297.265625h-51.734375c-12.675781 0-22.988281 10.3125-22.988281 22.992187v134.375c0 12.675782 10.3125 22.988282 22.988281 22.988282h51.734375c12.679688 0 22.992188-10.3125 22.992188-22.988282v-134.375c0-12.679687-10.3125-22.992187-22.992188-22.992187zm7.992188 157.367187c0 4.402344-3.585938 7.988282-7.992188 7.988282h-51.734375c-4.402343 0-7.988281-3.585938-7.988281-7.988282v-134.375c0-4.40625 3.585938-7.992187 7.988281-7.992187h51.734375c4.40625 0 7.992188 3.585937 7.992188 7.992187zm0 0"/><path d="m212.820312 191.945312h-51.734374c-12.675782 0-22.988282 10.3125-22.988282 22.988282v42.644531c0 4.140625 3.355469 7.5 7.5 7.5 4.140625 0 7.5-3.359375 7.5-7.5v-42.644531c0-4.402344 3.582032-7.988282 7.988282-7.988282h51.734374c4.40625 0 7.988282 3.585938 7.988282 7.988282v239.699218c0 4.402344-3.582032 7.988282-7.988282 7.988282h-51.734374c-4.40625 0-7.988282-3.585938-7.988282-7.988282v-167.054687c0-4.140625-3.359375-7.5-7.5-7.5-4.144531 0-7.5 3.359375-7.5 7.5v167.054687c0 12.675782 10.3125 22.988282 22.988282 22.988282h51.734374c12.675782 0 22.988282-10.3125 22.988282-22.988282v-239.695312c0-12.679688-10.3125-22.992188-22.988282-22.992188zm0 0"/><path d="m350.914062 255.140625h-51.734374c-12.675782 0-22.988282 10.3125-22.988282 22.988281v176.503906c0 12.675782 10.3125 22.988282 22.988282 22.988282h51.734374c12.679688 0 22.992188-10.3125 22.992188-22.988282v-176.503906c0-12.675781-10.3125-22.988281-22.992188-22.988281zm7.992188 199.492187c0 4.402344-3.585938 7.988282-7.992188 7.988282h-51.734374c-4.40625 0-7.988282-3.585938-7.988282-7.988282v-176.503906c0-4.40625 3.582032-7.988281 7.988282-7.988281h51.734374c4.40625 0 7.992188 3.582031 7.992188 7.988281zm0 0"/><path d="m489.011719 139.285156h-51.734375c-12.675782 0-22.992188 10.3125-22.992188 22.988282v214.304687c0 4.140625 3.359375 7.5 7.5 7.5 4.144532 0 7.5-3.359375 7.5-7.5v-214.304687c0-4.40625 3.585938-7.988282 7.992188-7.988282h51.734375c4.402343 0 7.988281 3.582032 7.988281 7.988282v292.359374c0 4.402344-3.585938 7.988282-7.988281 7.988282h-51.734375c-4.40625 0-7.992188-3.585938-7.992188-7.988282v-48.054687c0-4.140625-3.355468-7.5-7.5-7.5-4.140625 0-7.5 3.359375-7.5 7.5v48.054687c0 12.675782 10.316406 22.988282 22.992188 22.988282h51.734375c12.675781 0 22.988281-10.3125 22.988281-22.988282v-292.359374c0-12.675782-10.3125-22.988282-22.988281-22.988282zm0 0"/><path d="m48.855469 157.980469c-25.765625 0-46.730469 20.964843-46.730469 46.730469 0 25.769531 20.964844 46.734374 46.730469 46.734374 25.769531 0 46.734375-20.964843 46.734375-46.734374 0-2.046876-.148438-4.054688-.402344-6.03125l73.683594-56.199219c5.5625 2.34375 11.675781 3.644531 18.082031 3.644531 10.101563 0 19.457031-3.234375 27.109375-8.703125l64.460938 29.496094c2.195312 23.742187 22.21875 42.398437 46.523437 42.398437 25.769531 0 46.734375-20.964844 46.734375-46.730468 0-2.792969-.261719-5.523438-.730469-8.179688l76.027344-63.789062c5.011719 1.84375 10.425781 2.847656 16.066406 2.847656 25.765625 0 46.730469-20.964844 46.730469-46.734375 0-25.765625-20.964844-46.730469-46.730469-46.730469-25.769531 0-46.734375 20.964844-46.734375 46.730469 0 2.792969.261719 5.523437.730469 8.179687l-76.03125 63.789063c-5.007813-1.839844-10.421875-2.847657-16.0625-2.847657-10.101563 0-19.457031 3.234376-27.109375 8.707032l-64.460938-29.5c-2.195312-23.742188-22.214843-42.398438-46.523437-42.398438-25.769531 0-46.730469 20.964844-46.730469 46.730469 0 2.046875.144532 4.058594.402344 6.035156l-73.6875 56.195313c-5.566406-2.34375-11.671875-3.640625-18.082031-3.640625zm414.289062-142.980469c17.496094 0 31.730469 14.234375 31.730469 31.730469 0 17.496093-14.234375 31.734375-31.730469 31.734375-17.234375 0-31.734375-14.5-31.734375-31.734375 0-17.496094 14.234375-31.730469 31.734375-31.730469zm-40.5625 54.925781c.125.21875.261719.429688.390625.644531 2.710938 4.566407 6.199219 8.667969 10.277344 12.070313l-67.640625 56.746094c-.125-.21875-2.175781-3.476563-3.179687-4.816407-2.179688-2.90625-4.691407-5.5625-7.488282-7.898437zm-129.261719 92.191407c.257813-17.007813 14.621094-31.265626 31.726563-31.265626 17.054687 0 31.730469 14.582032 31.730469 31.734376 0 17.496093-14.234375 31.730468-31.730469 31.730468s-31.730469-14.234375-31.730469-31.730468c0-.15625 0-.3125.003906-.46875zm-67.832031-36.328126c3.070313-4.507812 5.386719-9.519531 6.738281-14.804687l54.46875 24.921875c-2.773437 3.996094-4.941406 8.433594-6.359374 13.089844-.203126.660156-.390626 1.324218-.5625 1.992187l-54.46875-24.921875c.0625-.089844.121093-.183594.183593-.277344zm-38.535156-58.128906c17.496094 0 31.730469 14.234375 31.730469 31.730469 0 17.09375-14.664063 31.734375-31.730469 31.734375-17.074219 0-31.734375-14.5625-31.734375-31.734375 0-17.496094 14.234375-31.730469 31.734375-31.730469zm-41.597656 53.019532c.089843.171874.191406.34375.28125.515624 2.507812 4.742188 5.832031 9.054688 9.789062 12.675782l-64.972656 49.554687c-1.203125-2.34375-2.617187-4.59375-4.195313-6.699219-1.75-2.335937-3.710937-4.515624-5.875-6.496093zm-77.589844 58.824218c7.699219 5.859375 12.824219 15.085938 12.824219 25.207032 0 17.5-14.234375 31.734374-31.734375 31.734374-17.496094 0-31.730469-14.234374-31.730469-31.734374 0-17.496094 14.234375-31.730469 31.730469-31.730469 6.976562 0 13.566406 2.449219 18.910156 6.523437zm0 0"/>
        </g>
    </svg>

    <!-- MODE -->
    <svg viewBox="0 -94 512 512">
        <g id="mode" class="img">
           <path d="m422.9375 152.070312v12.449219c0 4.140625 3.355469 7.5 7.5 7.5 4.140625 0 7.5-3.359375 7.5-7.5v-12.449219c0-4.144531-3.359375-7.5-7.5-7.5-4.144531 0-7.5 3.355469-7.5 7.5zm0 0"/><path d="m261.621094 152.070312v12.449219c0 4.140625 3.359375 7.5 7.5 7.5 4.144531 0 7.5-3.359375 7.5-7.5v-12.449219c0-4.144531-3.355469-7.5-7.5-7.5-4.140625 0-7.5 3.355469-7.5 7.5zm0 0"/><path d="m368.101562 158.597656c-10.789062 8.367188-25.855468 8.367188-36.640624 0-3.273438-2.539062-7.988282-1.945312-10.523438 1.328125-2.539062 3.273438-1.945312 7.984375 1.328125 10.523438 8.101563 6.285156 17.808594 9.425781 27.515625 9.425781s19.414062-3.140625 27.511719-9.425781c3.273437-2.539063 3.867187-7.25 1.328125-10.523438-2.535156-3.273437-7.25-3.867187-10.519532-1.328125zm0 0"/><path d="m477.808594 62.585938c-2.546875-3.265626-7.261719-3.851563-10.527344-1.304688s-3.851562 7.257812-1.304688 10.527344c20.296876 26.046875 31.023438 57.308594 31.023438 90.414062 0 81.175782-66.042969 147.21875-147.222656 147.21875-81.175782 0-147.21875-66.042968-147.21875-147.21875 0-81.179687 66.042968-147.222656 147.21875-147.222656 34.132812 0 67.398437 11.945312 93.667968 33.636719 3.195313 2.636719 7.921876 2.183593 10.558594-1.007813 2.640625-3.195312 2.1875-7.925781-1.007812-10.5625-28.953125-23.902344-65.609375-37.066406-103.21875-37.066406h-187.558594c-89.449219 0-162.21875 72.773438-162.21875 162.222656 0 89.449219 72.769531 162.21875 162.21875 162.21875h10.816406c4.144532 0 7.5-3.355468 7.5-7.5 0-4.140625-3.355468-7.5-7.5-7.5h-10.816406c-81.175781 0-147.21875-66.042968-147.21875-147.21875 0-81.179687 66.042969-147.222656 147.21875-147.222656h119.476562c-55.53125 25.785156-94.136718 82.074219-94.136718 147.222656 0 65.144532 38.605468 121.433594 94.136718 147.21875h-74.554687c-4.144531 0-7.5 3.359375-7.5 7.5 0 4.144532 3.355469 7.5 7.5 7.5h142.636719c89.449218 0 162.222656-72.769531 162.222656-162.21875 0-36.476562-11.824219-70.929687-34.191406-99.636718zm0 0"/>
        </g>
    </svg>

    <!-- CONNECTIONS -->
    <svg viewBox="0 0 512 512.001">
        <g id="connections" class="img">
          <path d="m497.570312 221.167969c-9.304687-9.304688-21.671874-14.429688-34.832031-14.429688-13.160156 0-25.53125 5.125-34.832031 14.429688-7.515625 7.511719-12.296875 17.023437-13.863281 27.332031h-53.082031c-1.65625-23.382812-10.980469-44.679688-25.472657-61.382812l37.59375-37.589844c8.160157 5.996094 18.222657 9.546875 29.105469 9.546875 27.164062 0 49.261719-22.097657 49.261719-49.261719s-22.097657-49.261719-49.261719-49.261719-49.265625 22.097657-49.265625 49.261719c0 10.882812 3.554687 20.945312 9.550781 29.109375l-37.589844 37.589844c-16.699218-14.492188-38-23.816407-61.382812-25.472657v-53.082031c10.3125-1.566406 19.824219-6.347656 27.335938-13.859375 19.207031-19.210937 19.207031-50.460937 0-69.667968-9.304688-9.304688-21.675782-14.429688-34.835938-14.429688-13.15625 0-25.527344 5.125-34.832031 14.429688-9.304688 9.304687-14.429688 21.675781-14.429688 34.832031 0 13.160156 5.125 25.53125 14.429688 34.835937 7.511719 7.511719 17.023437 12.292969 27.332031 13.859375v53.085938c-23.382812 1.652343-44.679688 10.976562-61.382812 25.46875l-37.589844-37.589844c5.996094-8.164063 9.550781-18.226563 9.550781-29.105469 0-27.164062-22.101563-49.265625-49.265625-49.265625-27.160156 0-49.261719 22.101563-49.261719 49.265625 0 27.160156 22.101563 49.261719 49.261719 49.261719 10.882812 0 20.945312-3.554687 29.105469-9.550781l37.59375 37.589844c-14.492188 16.703124-23.816407 38-25.46875 61.382812h-53.085938c-1.566406-10.308594-6.347656-19.820312-13.859375-27.332031-9.304687-9.304688-21.675781-14.429688-34.835937-14.429688-26.847657 0-49.261719 22.449219-49.261719 49.261719 0 26.570312 22.269531 49.261719 49.261719 49.261719 23.988281 0 45.089843-18.027344 48.695312-41.761719h53.085938c1.652343 23.382812 10.976562 44.679688 25.46875 61.382812l-37.59375 37.589844c-8.160157-5.996094-18.222657-9.546875-29.105469-9.546875-27.160156 0-49.261719 22.097657-49.261719 49.261719s22.101563 49.261719 49.261719 49.261719c27.164062 0 49.265625-22.097657 49.265625-49.261719 0-10.882812-3.554687-20.945312-9.550781-29.105469l37.589844-37.59375c16.703124 14.492188 38 23.816407 61.382812 25.472657v53.082031c-10.308594 1.566406-19.820312 6.347656-27.332031 13.859375-9.304688 9.308594-14.429688 21.675781-14.429688 34.835937 0 26.824219 22.472657 49.261719 49.261719 49.261719 43.074219.003906 65.164062-53.765625 34.835938-84.097656-7.511719-7.511719-17.027344-12.292969-27.335938-13.859375v-53.082031c23.382812-1.65625 44.679688-10.980469 61.382812-25.472657l37.589844 37.59375c-5.996094 8.160157-9.550781 18.222657-9.550781 29.105469 0 27.164062 22.101563 49.261719 49.265625 49.261719s49.261719-22.097657 49.261719-49.261719-22.097657-49.261719-49.261719-49.261719c-10.882812 0-20.945312 3.550781-29.105469 9.550781l-37.59375-37.59375c14.492188-16.699218 23.816407-38 25.472657-61.382812h53.082031c1.566406 10.3125 6.347656 19.824219 13.863281 27.335938 9.300781 9.304687 21.671875 14.429687 34.832031 14.429687 13.160157 0 25.527344-5.125 34.832031-14.429687 9.304688-9.304688 14.429688-21.675782 14.429688-34.835938 0-13.15625-5.125-25.527344-14.429688-34.832031zm-95.382812-145.617188c18.890625 0 34.261719 15.371094 34.261719 34.265625 0 18.890625-15.371094 34.261719-34.261719 34.261719-18.894531 0-34.265625-15.371094-34.265625-34.261719 0-18.894531 15.371094-34.265625 34.265625-34.265625zm-180.449219-26.289062c0-18.6875 15.589844-34.261719 34.261719-34.261719 29.949219 0 45.332031 37.386719 24.226562 58.488281-6.46875 6.472657-15.070312 10.035157-24.230468 10.035157-18.664063.003906-34.257813-15.632813-34.257813-34.261719zm-146.1875 60.554687c0-18.894531 15.371094-34.265625 34.265625-34.265625 18.890625 0 34.261719 15.371094 34.261719 34.265625 0 18.890625-15.371094 34.261719-34.261719 34.261719-18.894531 0-34.265625-15.371094-34.265625-34.261719zm-26.289062 180.445313c-18.699219 0-34.261719-15.582031-34.261719-34.261719 0-18.683594 15.585938-34.261719 34.261719-34.261719 18.691406 0 34.261719 15.597657 34.265625 34.269531.003906 18.695313-15.589844 34.253907-34.265625 34.253907zm60.554687 146.1875c-18.894531 0-34.265625-15.371094-34.265625-34.265625 0-18.890625 15.371094-34.261719 34.265625-34.261719 18.890625 0 34.261719 15.371094 34.261719 34.261719 0 18.894531-15.371094 34.265625-34.261719 34.265625zm170.410156 50.515625c-6.46875 6.472656-15.074218 10.035156-24.226562 10.035156-18.6875 0-34.261719-15.589844-34.261719-34.261719 0-18.683593 15.589844-34.261719 34.261719-34.261719 9.152344 0 17.753906 3.5625 24.226562 10.035157 13.359376 13.359375 13.359376 35.09375 0 48.453125zm156.222657-84.777344c0 18.890625-15.371094 34.261719-34.265625 34.261719-18.890625 0-34.261719-15.371094-34.261719-34.261719 0-18.894531 15.371094-34.261719 34.261719-34.261719 18.894531 0 34.265625 15.367188 34.265625 34.261719zm-180.449219-55.957031c-49.75 0-90.226562-40.476563-90.226562-90.230469 0-49.75 40.46875-90.222656 90.21875-90.230469h.007812.007812c49.75.003907 90.222657 40.480469 90.222657 90.230469 0 49.753906-40.476563 90.230469-90.230469 90.230469zm230.875-66.09375c-6.234375 6.230469-14.800781 10.125-24.136719 10.125-18.6875 0-34.261719-15.585938-34.261719-34.261719 0-18.691406 15.578126-34.261719 34.261719-34.261719 18.671875 0 34.261719 15.609375 34.261719 34.261719 0 9.34375-3.894531 17.910156-10.125 24.136719zm0 0"/><path d="m199.234375 240.621094c-4.140625 0-7.5 3.359375-7.5 7.5v10.273437c0 4.140625 3.359375 7.5 7.5 7.5 4.144531 0 7.5-3.359375 7.5-7.5v-10.273437c0-4.140625-3.355469-7.5-7.5-7.5zm0 0"/><path d="m312.765625 240.621094c-4.140625 0-7.5 3.359375-7.5 7.5v10.273437c0 4.140625 3.359375 7.5 7.5 7.5s7.5-3.359375 7.5-7.5v-10.273437c0-4.140625-3.359375-7.5-7.5-7.5zm0 0"/><path d="m274.945312 252.03125c-3.117187-2.722656-7.855468-2.40625-10.582031.710938-2.019531 2.3125-5.066406 3.636718-8.363281 3.636718s-6.34375-1.324218-8.363281-3.636718c-2.726563-3.117188-7.464844-3.4375-10.582031-.710938-3.121094 2.726562-3.4375 7.464844-.710938 10.582031 4.867188 5.570313 12.03125 8.765625 19.65625 8.765625s14.789062-3.195312 19.65625-8.765625c2.726562-3.117187 2.410156-7.855469-.710938-10.582031zm0 0"/>
        </g>
    </svg>

    <!-- COMPANY -->
    <svg viewBox="0 0 511.999 511.999">
        <g id="company" class="img">
          <path d="M464.596,68.744c-27.491-27.077-63.256-42.219-100.708-42.635c-38.699-0.434-75.898,14.71-107.893,43.873
			c-27.286-24.832-58.83-39.7-91.63-43.115c-32.363-3.372-64.235,4.273-92.168,22.099c-3.492,2.229-4.516,6.865-2.288,10.357
			c2.229,3.492,6.865,4.516,10.357,2.288c25.045-15.984,53.589-22.839,82.546-19.825c31.523,3.282,61.934,18.452,87.943,43.87
			c2.914,2.849,7.57,2.849,10.484,0c30.239-29.551,65.657-44.972,102.483-44.548c33.55,0.373,65.637,13.982,90.348,38.323
			c29.86,29.411,45.023,70.161,42.694,114.744c-2.497,47.783-25.089,97.329-65.573,144.164c-0.227-3.233-0.495-6.463-0.796-9.69
			c-1.798-19.27-4.679-38.558-9.376-57.345c-0.179-0.745-0.356-1.49-0.541-2.237c2.984,1.565,6.165,2.73,9.524,3.313
			c9.914,1.722,19.779-2.417,26.549-9.854c7.681-8.437,11.98-20.937,10.953-31.846c-1.154-12.268-7.606-22.747-13.846-32.881
			c-3.257-5.289-6.333-10.284-8.444-15.209c-6.908-16.115-16.551-33.61-35.694-41.185c-5.758-2.278-11.934-3.433-18.358-3.433
			c-11.958,0-24.755,3.923-38.102,11.646c-2.22-1.817-4.488-3.574-6.813-5.255c-26.137-18.898-58.224-27.537-90.248-27.537
			c-34.943,0-69.8,10.48-97.061,32.792c-13.347-7.724-26.145-11.646-38.104-11.646c-6.424,0-12.601,1.155-18.358,3.433
			c-19.142,7.573-28.786,25.068-35.695,41.185c-2.112,4.926-5.187,9.921-8.444,15.21c-6.24,10.134-12.692,20.612-13.846,32.88
			c-1.027,10.906,3.272,23.404,10.951,31.842c6.7,7.362,16.582,11.592,26.551,9.858c3.358-0.583,6.54-1.749,9.524-3.314
			c-0.186,0.755-0.365,1.506-0.546,2.258c-3.074,12.794-5.813,25.906-7.268,38.996c-1.264,9.306-2.237,18.651-2.899,28.02
			c-40.476-46.825-63.064-96.357-65.567-144.129c-2.335-44.571,12.815-85.317,42.66-114.735c2.95-2.908,2.984-7.656,0.076-10.606
			c-2.908-2.951-7.657-2.984-10.606-0.077c-32.941,32.469-49.672,77.289-47.11,126.202c2.928,55.897,31.151,113.595,81.616,166.864
			c0.038,0.042,0.072,0.087,0.11,0.128c42.102,44.414,99.477,85.818,170.533,123.065c1.09,0.572,2.286,0.857,3.482,0.857
			c1.196,0,2.392-0.286,3.482-0.857c43.043-22.563,81.409-46.871,114.034-72.249c3.27-2.543,3.858-7.255,1.315-10.525
			s-7.256-3.858-10.525-1.315c-31.043,24.148-67.463,47.34-108.305,68.969c-66.783-35.362-120.913-74.374-160.986-116.021
			c0.01-0.312,0.021-0.628,0.032-0.949c0.193-5.414,0.472-10.832,0.914-16.232c2.442-29.795,7.789-60.933,17.641-89.86
			c9.804-28.814,24.363-56.796,46.427-78.147c12.677-12.268,27.763-21.967,44.306-28.13c15.675-5.838,32.909-8.769,51.666-8.769
			c36.596,0,67.388,11.183,92.12,33.316c24.205,21.662,39.945,51.333,50.288,81.758c11.46,33.709,17.138,69.444,18.505,104.964
			c0.026,0.683,0.049,1.366,0.072,2.048c-9.138,9.496-19.121,18.963-29.714,28.176c-3.125,2.718-3.455,7.456-0.736,10.581
			c2.718,3.125,7.456,3.455,10.581,0.736c11.788-10.253,22.856-20.824,32.899-31.418c0.039-0.041,0.072-0.085,0.109-0.126
			c50.477-53.282,78.701-110.994,81.623-166.903C514.3,146.03,497.556,101.207,464.596,68.744z M122.029,192.829
			c-9.256,15.173-16.527,31.532-22.325,48.315c-0.023,0.067-0.048,0.132-0.071,0.199c-6.738,9.4-13.889,15.16-20.208,16.258
			c-5.004,0.867-9.583-1.545-12.889-5.177c-4.816-5.291-7.739-13.655-7.11-20.34c0.827-8.786,6.101-17.352,11.685-26.421
			c3.398-5.518,6.911-11.224,9.458-17.165c5.692-13.277,13.401-27.597,27.426-33.146c3.993-1.58,8.313-2.381,12.84-2.381
			c7.966,0,16.955,2.512,26.365,7.324C137.531,170.059,129.179,181.107,122.029,192.829z M412.365,241.343
			c-0.022-0.063-0.045-0.125-0.067-0.188c-0.073-0.212-0.147-0.425-0.221-0.637c-3.205-9.263-6.879-18.364-11.081-27.22
			c-8.779-18.503-19.967-36.006-34.143-50.856c-0.684-0.718-1.362-1.447-2.056-2.149c9.41-4.811,18.399-7.323,26.365-7.323
			c4.527,0,8.847,0.801,12.84,2.381c14.025,5.549,21.734,19.869,27.426,33.146c2.546,5.94,6.06,11.646,9.458,17.164
			c5.584,9.069,10.858,17.635,11.686,26.421c0.629,6.687-2.295,15.052-7.111,20.342c-3.295,3.62-7.907,6.038-12.889,5.174
			C426.254,256.502,419.103,250.741,412.365,241.343z"/>
            <path d="M185.744,227.182c-4.142,0-7.5,3.358-7.5,7.5v12.715c0,4.142,3.358,7.5,7.5,7.5c4.142,0,7.5-3.358,7.5-7.5v-12.715
			C193.244,230.54,189.886,227.182,185.744,227.182z"/>
            <path d="M326.254,227.182c-4.142,0-7.5,3.358-7.5,7.5v12.715c0,4.142,3.358,7.5,7.5,7.5c4.142,0,7.5-3.358,7.5-7.5v-12.715
			C333.754,230.54,330.396,227.182,326.254,227.182z"/>
            <path d="M272.678,240.53h-33.359c-6.626,0-8.482,9.076-2.396,11.698c5.799,2.498,12.262,3.893,19.076,3.893
			c6.814,0,13.277-1.395,19.075-3.893C281.16,249.606,279.305,240.53,272.678,240.53z"/>
            <path d="M292.024,265.611c-3.119-2.726-7.857-2.408-10.583,0.711c-2.396,2.741-6.004,4.313-9.898,4.313
			c-3.894,0-7.502-1.572-9.898-4.313c-1.402-1.604-3.51-2.557-5.639-2.557c-2.141,0-4.246,0.944-5.655,2.557
			c-2.396,2.741-6.004,4.313-9.899,4.313c-3.893,0-7.501-1.573-9.897-4.314c-2.726-3.118-7.464-3.438-10.583-0.71
			c-3.119,2.726-3.437,7.464-0.711,10.583c5.245,6,12.969,9.441,21.192,9.441c5.627,0,11.02-1.613,15.545-4.554
			c4.525,2.94,9.918,4.554,15.545,4.554c8.223,0,15.948-3.441,21.192-9.441C295.461,273.075,295.143,268.337,292.024,265.611z"/>
        </g>
    </svg>

    <!-- USERS -->
    <svg viewBox="0 0 511 511.99851">
        <g id="users" class="img">
          <path d="m340.117188 281.808594c0 16.695312 12.496093 30.277344 27.855468 30.277344 15.355469 0 27.851563-13.582032 27.851563-30.277344 0-21.261719-19.519531-21.261719-27.851563-21.261719-8.335937.003906-27.855468.003906-27.855468 21.261719zm40.707031 0c0 8.421875-5.765625 15.277344-12.851563 15.277344-7.089844 0-12.855468-6.855469-12.855468-15.277344 0-4.296875 0-6.261719 12.855468-6.261719 12.851563.003906 12.851563 1.964844 12.851563 6.261719zm-84.550781-19.125v10.835937c0 4.140625 3.355468 7.5 7.5 7.5 4.140624 0 7.5-3.359375 7.5-7.5v-10.835937c0-4.144532-3.359376-7.5-7.5-7.5-4.144532 0-7.5 3.355468-7.5 7.5zm208.113281 102.589844c-10.636719-10.417969-27.765625-10.238282-38.183594.398437-4.621094 4.722656-10.59375 8.238281-17.089844 10.285156 5.527344-7.195312 10.441407-14.785156 14.667969-22.722656 1.941406-3.65625.558594-8.199219-3.101562-10.144531-3.65625-1.949219-8.195313-.558594-10.144532 3.097656-6.378906 11.988281-14.488281 23.105469-24.03125 33.207031-.542968.425781-1.023437.929688-1.429687 1.492188-9.550781 9.855469-20.484375 18.714843-32.539063 26.441406-.710937.304687-1.375.722656-1.96875 1.242187-22.605468 14.113282-49.011718 24.277344-77.496094 29.59375-19.132812-3.1875-36.210937-12.292968-50.839843-27.101562 2.128906-5.160156 2.609375-10.839844 1.316406-16.382812-1.636719-7.023438-5.914063-12.988282-12.039063-16.796876-4.53125-2.820312-9.679687-4.203124-14.894531-4.070312-12.339843-25.714844-19.097656-56.71875-19.097656-87.957031 0-67.964844 32.796875-141.789063 95.488281-152.304688 87.558594 16.394531 152.875 78.453125 152.875 152.304688 0 9.949219-1.195312 19.898437-3.550781 29.578125-.980469 4.027344 1.484375 8.082031 5.511719 9.0625.59375.144531 1.191406.214844 1.78125.214844 3.375 0 6.445312-2.296876 7.277344-5.726563 2.640624-10.839844 3.980468-21.988281 3.980468-33.128906 0-46.152344-22.480468-89.433594-63.292968-121.871094-5.21875-4.148437-10.664063-8.050781-16.304688-11.707031 17.746094-17.621094 27.441406-42.128906 26.277344-67.433594-1.015625-22.078125-10.265625-42.921875-26.046875-58.703125-15.777344-15.777344-36.625-25.027344-58.699219-26.0429688-24.585938-1.1328122-47.921875 7.5859378-65.679688 24.5429688-17.765624 16.96875-27.550781 39.839844-27.550781 64.398437v25.828126c-13.488281.871093-26.800781 2.761718-39.804687 5.644531v-31.476563c0-24.558594-9.785156-47.429687-27.550782-64.394531-17.753906-16.960937-41.078124-25.667969-65.679687-24.5429688-22.074219 1.0156248-42.921875 10.2656248-58.699219 26.0429688-15.78125 15.777344-25.027344 36.625-26.042968 58.699219-.667969 14.449218 2.191406 28.941406 8.261718 41.90625 1.753906 3.753906 6.222656 5.371094 9.972656 3.613281s5.367188-6.222656 3.613282-9.972656c-5.117188-10.925781-7.425782-22.65625-6.863282-34.855469 1.734376-37.769531 32.679688-68.714844 70.449219-70.449219 20.464844-.941406 39.867188 6.304688 54.628907 20.40625 14.777343 14.109375 22.910156 33.125 22.910156 53.546875v63.28125c0 5.929688-4.824219 10.753906-10.753906 10.753906h-63.28125c-17.238282 0-34.023438-6.050781-47.261719-17.042968-3.183594-2.644532-7.914063-2.207032-10.558594.980468-2.648437 3.1875-2.207031 7.914063.976563 10.558594 11.171874 9.277344 24.445312 15.613282 38.53125 18.582032-18.722657 17.996093-32.453126 38.621093-40.621094 60.769531l-48.578125 27.210937c-7.972657 4.464844-12.730469 12.585938-12.730469 21.726563 0 9.136719 4.757812 17.257812 12.730469 21.722656l48.558593 27.199219c7.230469 19.59375 18.851563 38.050781 34.609376 54.707031 4.015624 4.246094 8.289062 8.332031 12.785156 12.253906-2.128906 31.5-12.328125 42.007813-15.761719 45.542969-10.375 10.679688-10.128906 27.808594.550781 38.183594 5.070313 4.921875 11.75 7.632812 18.8125 7.632812 7.363282 0 14.242188-2.90625 19.371094-8.183594 13.03125-13.417968 21.832031-30.171874 26.753906-51 10.648438 5.011719 21.824219 9.285157 33.375 12.746094.074219.019532.148438.046875.21875.066406 2.257813.671876 4.53125 1.308594 6.816406 1.921876 1.050782 19.425781 7.582032 39.171874 22.738282 55.011718 5.140625 5.378906 12.070312 8.339844 19.515625 8.339844 6.984375 0 13.609375-2.660156 18.660156-7.492188 10.757813-10.289062 11.140625-27.417968.847656-38.175781-2.621093-2.742187-4.425781-5.898437-5.65625-9.179687 3.839844.164062 7.691407.25 11.527344.25 16.140625 0 31.972656-1.445313 47.273437-4.207032.167969-.027343.339844-.058593.507813-.097656 29.644531-5.417968 57.261719-15.804687 81.160156-30.257812 12.136719 5.894531 25.875 9 40.035157 9 26.097656 0 51.195312-10.347656 68.859374-28.386719 10.417969-10.632813 10.234376-27.765625-.402343-38.179687zm-448.460938-50.972657-35.363281-19.808593c-3.171875-1.773438-5.0625-5.003907-5.0625-8.636719 0-3.632813 1.890625-6.863281 5.0625-8.636719l35.382812-19.820312c-1.925781 9.316406-2.921874 18.824218-2.921874 28.457031.003906 9.628906.980468 19.132812 2.902343 28.445312zm208.65625-225.265625c0-20.421875 8.136719-39.4375 22.910157-53.546875 14.765624-14.101562 34.171874-21.351562 54.632812-20.40625 37.765625 1.734375 68.710938 32.679688 70.449219 70.449219 1.027343 22.351562-8.128907 43.953125-24.671875 58.742188-21.042969-11.597657-44.378906-20.015626-69.074219-24.921876.230469-.179687.453125-.371093.664063-.585937l48.859374-48.855469c2.929688-2.929687 2.929688-7.679687 0-10.609375-2.929687-2.925781-7.679687-2.925781-10.605468 0l-48.859375 48.859375c-2.511719 2.511719-2.863281 6.363282-1.0625 9.257813-13.332031-2.054688-27-3.113281-40.871094-3.113281-.789063 0-1.578125.011718-2.371094.019531zm-143.183593 385.425782c-2.28125 2.34375-5.335938 3.636718-8.609376 3.636718-3.140624 0-6.109374-1.203125-8.363281-3.390625-4.746093-4.613281-4.855469-12.226562-.246093-16.972656 3.96875-4.082031 15.011718-15.453125 18.964843-44.894531 6.941407 5.042968 14.28125 9.722656 21.96875 13.996094-4.125 19.84375-11.90625 35.46875-23.714843 47.625zm-14.101563-95.285157c-14.804687-15.648437-25.578125-32.996093-32.058594-51.371093-.105469-.425782-.253906-.839844-.433593-1.242188-4.484376-13.132812-6.777344-26.78125-6.777344-40.707031 0-13.960938 2.324218-27.660157 6.824218-40.820313.140626-.320312.261719-.648437.355469-.984375 8.601563-24.503906 24.777344-47.105469 47.582031-65.980469h17.171876c-17.082032 30.285157-26.71875 68.761719-26.71875 107.78125 0 32.628907 6.894531 65.800782 19.410156 93.414063 6.015625 13.261719 13.226562 25.132813 21.445312 35.398437-17.863281-9.71875-33.773437-21.714843-46.800781-35.488281zm89.984375 53.324219c-21.035156-11.738281-38.648438-32.261719-50.964844-59.429688-11.65625-25.707031-18.074218-56.679687-18.074218-87.214843 0-39.792969 10.613281-78.8125 29.214843-107.785157h26.566407c14.203124 0 25.757812-11.554687 25.757812-25.753906v-16.417968c18.496094-4.371094 37.699219-6.59375 57.171875-6.59375 3.945313 0 7.863281.101562 11.75.28125-19.210937 10.273437-35.753906 26.792968-48.789063 48.957031-17.667968 30.050781-27.398437 68.160156-27.398437 107.3125 0 32.675781 6.964844 65.199219 19.683594 92.53125-3.136719 2.101562-5.824219 4.863281-7.878907 8.167969-7.320312 11.773437-13.132812 28.535156-14.722656 46.609374-.773437-.21875-1.546875-.4375-2.316406-.664062zm52.585938 61.171875c-2.246094 2.144531-5.1875 3.328125-8.292969 3.328125-3.308594 0-6.390625-1.316406-8.675781-3.707031-15.808594-16.523438-18.960938-37.027344-18.820313-51.320313.164063-16.933594 5.019531-34.691406 12.980469-47.5 1.601562-2.570312 4.0625-4.394531 6.960937-5.207031.066407-.015625.128907-.035156.195313-.054687.105468-.027344.207031-.0625.3125-.089844.914062-.210938 1.832031-.316406 2.746094-.316406 2.214843 0 4.390624.617187 6.316406 1.8125 2.722656 1.695312 4.621094 4.347656 5.351562 7.46875.726563 3.121093.195313 6.339843-1.496094 9.0625-.269531.429687-.535156.882812-.800781 1.351562-.003906.003906-.007812.007812-.007812.015625-8.425781 14.855469-15.503907 48.207031 3.605469 68.1875 4.578124 4.78125 4.40625 12.394531-.375 16.96875zm17.085937-51.269531c-4.613281 0-9.25-.136719-13.855469-.386719.011719-.785156.039063-1.558594.085938-2.296875.304687-5.035156 1.265625-9.890625 2.527344-14.109375 7.183593 6.640625 14.871093 12.152344 23.023437 16.519531-3.90625.179688-7.832031.273438-11.78125.273438zm227.121094-49.441406c-14.859375 15.175781-36.054688 23.878906-58.144531 23.878906-8.660157 0-17.109376-1.375-24.964844-4.015625 8.34375-6.082031 16.113281-12.714844 23.214844-19.847657 16.015624.53125 31.765624-5.601562 42.742187-16.808593 4.628906-4.726563 12.242187-4.808594 16.972656-.179688 4.726563 4.632813 4.808594 12.246094.179688 16.972657zm-69.40625-130.277344v10.835937c0 4.140625 3.359375 7.5 7.5 7.5 4.144531 0 7.5-3.359375 7.5-7.5v-10.835937c0-4.144532-3.355469-7.5-7.5-7.5-4.140625 0-7.5 3.355468-7.5 7.5zm-279.496094-141.71875c1.917969 0 3.839844-.730469 5.304687-2.195313 2.925782-2.929687 2.925782-7.679687 0-10.605469l-48.859374-48.859374c-2.929688-2.929688-7.679688-2.929688-10.605469 0-2.929688 2.929687-2.929688 7.675781 0 10.605468l48.855469 48.859375c1.464843 1.460938 3.386718 2.195313 5.304687 2.195313zm0 0"/>
        </g>
    </svg>

    <!-- USERS ALL -->
    <svg viewBox="0 -8 512.00214 512">
        <g id="users-all" class="img">
          <path d="m328.34375 366.488281v-12.570312c0-4.144531-3.359375-7.507813-7.507812-7.507813-4.144532 0-7.503907 3.363282-7.503907 7.507813v12.570312c0 4.144531 3.359375 7.507813 7.503907 7.507813 4.148437 0 7.507812-3.363282 7.507812-7.507813zm0 0"/><path d="m304.769531 384.96875c0 4.144531 3.363281 7.503906 7.507813 7.503906h17.125c4.144531 0 7.503906-3.359375 7.503906-7.503906s-3.359375-7.503906-7.503906-7.503906h-17.125c-4.148438 0-7.507813 3.359375-7.507813 7.503906zm0 0"/><path d="m199.019531 366.488281v-12.570312c0-4.144531-3.363281-7.507813-7.507812-7.507813s-7.503907 3.363282-7.503907 7.507813v12.570312c0 4.144531 3.359376 7.507813 7.503907 7.507813s7.507812-3.363282 7.507812-7.507813zm0 0"/><path d="m175.445312 384.96875c0 4.144531 3.359376 7.503906 7.503907 7.503906h17.125c4.144531 0 7.503906-3.359375 7.503906-7.503906s-3.359375-7.503906-7.503906-7.503906h-17.125c-4.144531 0-7.503907 3.359375-7.503907 7.503906zm0 0"/><path d="m256.175781 391.765625c6.671875 0 12.949219-2.800781 17.214844-7.683594 2.730469-3.121093 2.410156-7.863281-.710937-10.589843-3.121094-2.730469-7.863282-2.410157-10.589844.710937-1.417969 1.621094-3.570313 2.550781-5.914063 2.550781s-4.496093-.929687-5.914062-2.550781c-2.730469-3.121094-7.472657-3.441406-10.589844-.710937-3.121094 2.726562-3.441406 7.46875-.710937 10.589843 4.265624 4.882813 10.539062 7.683594 17.214843 7.683594zm0 0"/><path d="m179.152344 162.164062c4.144531 0 7.507812-3.359374 7.507812-7.503906v-10.773437c0-4.144531-3.363281-7.503907-7.507812-7.503907-4.144532 0-7.503906 3.359376-7.503906 7.503907v10.773437c0 4.144532 3.359374 7.503906 7.503906 7.503906zm0 0"/><path d="m186.488281 164.988281h-14.667969c-4.144531 0-7.507812 3.359375-7.507812 7.503907 0 4.144531 3.363281 7.503906 7.507812 7.503906h14.667969c4.144531 0 7.503907-3.359375 7.503907-7.503906 0-4.144532-3.359376-7.503907-7.503907-7.503907zm0 0"/><path d="m68.363281 162.164062c4.144531 0 7.507813-3.359374 7.507813-7.503906v-10.773437c0-4.144531-3.363282-7.503907-7.507813-7.503907s-7.503906 3.359376-7.503906 7.503907v10.773437c0 4.144532 3.359375 7.503906 7.503906 7.503906zm0 0"/><path d="m75.699219 164.988281h-14.671875c-4.144532 0-7.503906 3.359375-7.503906 7.503907 0 4.144531 3.359374 7.503906 7.503906 7.503906h14.671875c4.144531 0 7.503906-3.359375 7.503906-7.503906 0-4.144532-3.359375-7.503907-7.503906-7.503907zm0 0"/><path d="m138.605469 159.847656c-3.121094-2.726562-7.859375-2.410156-10.589844.710938-1.007813 1.15625-2.5625 1.820312-4.257813 1.820312-1.695312 0-3.246093-.664062-4.253906-1.820312-2.730468-3.121094-7.46875-3.4375-10.589844-.710938-3.121093 2.730469-3.441406 7.46875-.714843 10.589844 3.863281 4.417969 9.53125 6.953125 15.558593 6.953125 6.027344 0 11.699219-2.535156 15.558594-6.953125 2.730469-3.121094 2.410156-7.863281-.710937-10.589844zm0 0"/><path d="m333.199219 162.164062c4.144531 0 7.503906-3.359374 7.503906-7.503906v-10.773437c0-4.144531-3.359375-7.503907-7.503906-7.503907-4.148438 0-7.507813 3.359376-7.507813 7.503907v10.773437c0 4.144532 3.359375 7.503906 7.507813 7.503906zm0 0"/><path d="m325.863281 179.996094h14.667969c4.144531 0 7.507812-3.359375 7.507812-7.503906 0-4.144532-3.363281-7.503907-7.507812-7.503907h-14.667969c-4.144531 0-7.507812 3.359375-7.507812 7.503907 0 4.144531 3.363281 7.503906 7.507812 7.503906zm0 0"/><path d="m443.984375 162.164062c4.144531 0 7.507813-3.359374 7.507813-7.503906v-10.773437c0-4.144531-3.363282-7.503907-7.507813-7.503907s-7.503906 3.359376-7.503906 7.503907v10.773437c0 4.144532 3.359375 7.503906 7.503906 7.503906zm0 0"/><path d="m436.652344 179.996094h14.667968c4.144532 0 7.507813-3.359375 7.507813-7.503906 0-4.144532-3.363281-7.503907-7.507813-7.503907h-14.667968c-4.144532 0-7.507813 3.359375-7.507813 7.503907 0 4.144531 3.363281 7.503906 7.507813 7.503906zm0 0"/><path d="m388.589844 177.386719c6.027344 0 11.699218-2.53125 15.5625-6.949219 2.726562-3.121094 2.40625-7.863281-.714844-10.589844-3.121094-2.726562-7.859375-2.410156-10.589844.710938-1.007812 1.15625-2.5625 1.816406-4.257812 1.816406-1.691406 0-3.246094-.660156-4.253906-1.816406-2.730469-3.121094-7.46875-3.4375-10.589844-.710938-3.121094 2.726563-3.441406 7.46875-.714844 10.589844 3.863281 4.417969 9.535156 6.949219 15.558594 6.949219zm0 0"/><path d="m2.742188 50.148438c-1.820313 24.601562-2.742188 57.171874-2.742188 96.8125 0 64.148437 52.175781 116.703124 117.535156 119.859374-12.960937 18.75-21.855468 40.007813-25.90625 62.429688-7.144531 7.289062-11.558594 17.261719-11.558594 28.253906 0 21.808594 17.367188 39.625 39 40.367188 7 22.484375 19.878907 42.96875 37.914063 59.765625 3.03125 2.824219 7.78125 2.65625 10.609375-.378907 2.824219-3.035156 2.652344-7.78125-.378906-10.605468-17.3125-16.121094-29.296875-36.03125-35.144532-57.863282-6.859374-25.613281-5.378906-53.9375 5.460938-78.25 5.554688-12.457031 14.449219-23.917968 26.167969-31.085937 27.800781-17.007813 62.257812-6.046875 89.164062 7.183594 2.046875 1.007812 4.582031 1.011719 6.628907 0 .023437-.011719.046874-.023438.070312-.035157 26.726562-13.222656 61.433594-24.035156 89.09375-7.144531 16.960938 10.402344 26.78125 28.605469 31.738281 47.347657 4.828125 18.261718 5.242188 37.617187 1.269531 56.078124-12.15625 56.144532-63.800781 98.445313-125.488281 98.445313-23.441406 0-46.375-6.171875-66.320312-17.839844-3.578125-2.09375-8.175781-.890625-10.269531 2.683594-2.09375 3.578125-.890626 8.175781 2.6875 10.269531 22.242187 13.015625 47.796874 19.894532 73.90625 19.894532 64.484374 0 119.148437-41.539063 137.027343-98.460938 21.664063-.703125 39.078125-18.535156 39.078125-40.371094 0-10.992187-4.417968-20.964844-11.5625-28.257812-4.050781-22.417969-12.941406-43.671875-25.898437-62.417969 30.675781-1.46875 59.308593-13.734375 81.191406-34.917969 40.242187-38.960937 47.921875-102.347656 17.007813-149.324218 11.664062-8.492188 18.851562-22.210938 18.851562-36.933594 0-25.171875-20.476562-45.652344-45.648438-45.652344-20.144531 0-37.492187 13.101562-43.441406 31.628906-10.882812-3.039062-22.355468-4.671875-34.195312-4.671875-18.953125 0-37.148438 4.050781-54.082032 12.042969-3.75 1.769531-5.355468 6.242188-3.585937 9.988281 1.769531 3.75 6.242187 5.355469 9.992187 3.585938 14.914063-7.035157 30.957032-10.605469 47.675782-10.605469 53.128906 0 97.933594 37.082031 107.054687 86.414062-16.5-7.96875-30.578125-21.042968-41.285156-35.78125-3.285156-4.507812-8.59375-7.472656-14.167969-7.851562-4.058594-.277344-7.9375.933594-11.875 1.703125-14.351562 2.792969-37.832031 6.300781-66.117187 6.554687-19.421875.171876-37.867188 5.246094-54.6875 14.917969-9.074219 5.214844-17.429688 11.492188-25.316407 18.347657-.089843.082031-.183593.164062-.273437.242187 4.722656-23.011719 17.34375-44.007813 36.203125-59.515625 3.199219-2.632812 3.660156-7.359375 1.027344-10.5625-2.632813-3.203125-7.363282-3.664062-10.5625-1.03125-27.808594 22.871094-43.753906 56.242188-43.753906 91.558594 0 16.960937 3.691406 33.621094 10.75 48.941406-6.417969-.734375-12.894532-1.113281-19.410157-1.113281-6.511719 0-12.992187.378906-19.40625 1.113281 6.953125-15.101562 10.632813-31.515625 10.738281-48.28125.019532-.21875.03125-.4375.03125-.664062 0-.1875-.007812-.375-.019531-.558594-.085937-52.195313-12.492187-87.789063-37.914062-108.800782-25.191407-20.820312-59.109375-23.488281-85.847657-23.488281-23.730468 0-48.027343-1.4375-72.210937-4.269531-24.367187-2.847656-46.992187 15.824219-48.804687 40.304688zm92.335937 307.355468c0-7.605468 3.363281-14.441406 8.679687-19.097656 3.265626-2.863281 7.246094-4.839844 11.5-5.734375-.566406 3.039063-1.027343 6.101563-1.386718 9.179687-1.554688 13.472657-1.105469 27.164063 1.359375 40.5-11.496094-2.421874-20.152344-12.640624-20.152344-24.847656zm302.011719 24.855469c.222656-1.191406.425781-2.386719.613281-3.585937 1.933594-12.199219 2.195313-24.65625.773437-36.929688-.355468-3.078125-.816406-6.132812-1.382812-9.171875.328125.070313.660156.144531.984375.230469 11.074219 2.792968 19.195313 13.078125 19.195313 24.601562 0 12.214844-8.671876 22.445313-20.183594 24.855469zm69.132812-367.347656c16.894532 0 30.640625 13.742187 30.640625 30.636719 0 9.957031-4.890625 19.226562-12.824219 24.917968-12.6875-14.90625-28.765624-26.550781-47.054687-34.082031 3.910156-12.5625 15.625-21.472656 29.238281-21.472656zm-172.078125 184.027343c-8.898437-15.015624-13.796875-31.957031-14.265625-49.328124 8.207032-9.175782 17.605469-17.339844 27.839844-24.179688 15.132812-10.117188 32.820312-17.5 51.261719-17.5 35.894531 0 64.855469-5.15625 78.917969-8.226562 1.628906-.355469 3.351562.296874 4.316406 1.628906 13.867187 19.054687 32.609375 35.53125 54.867187 43.90625.082031.03125.164063.066406.25.097656.007813.5.011719 1.011719.011719 1.527344 0 28.007812-11.28125 54.339844-31.769531 74.15625-21.828125 21.125-51.339844 32.195312-82.445313 30.710937-.769531-.875-1.554687-1.746093-2.34375-2.605469-16.535156-18.015624-37.011718-32.261718-59.617187-41.578124-8.753907-3.605469-17.789063-6.507813-27.023438-8.609376zm27.101563 25.015626c18.996094 8.757812 36.183594 21.441406 50.074218 37.089843.039063.046875.082032.089844.121094.136719 14.738282 16.640625 25.503906 36.246094 31.449219 57.347656-.097656-.027344-.195313-.046875-.296875-.074218-3.050781-.835938-6.207031-1.324219-9.371094-1.429688-1.328125-4.230469-2.863281-8.410156-4.617187-12.53125-8.214844-19.300781-23.773438-35.9375-43.503907-43.585938-23.34375-9.050781-49.3125-4.945312-72.183593 3.488282-4.386719 1.617187-15.476563 6.472656-16.742188 7.074218-6.589843-3.117187-13.359375-5.910156-20.242187-8.300781-21.832032-7.597656-46.636719-10.808593-68.691406-2.257812-24.4375 9.472656-40.480469 31.78125-48.117188 56.113281-3.164062.105469-6.316406.597656-9.371094 1.429688-.097656.027343-.199218.046874-.296875.074218 5.949219-21.101562 16.71875-40.710937 31.453125-57.351562.039063-.039063.074219-.082032.109375-.121094 14.050781-15.589844 31.023438-28.28125 50.089844-37.101562 40.894531-18.914063 89.242187-18.851563 130.136719 0zm-130.066406-16.402344c-23.542969 9.730468-45.046876 24.945312-61.957032 44.175781-1.824218.089844-3.652344.132813-5.464844.132813-59.929687 0-108.695312-47.054688-108.746093-104.910157.390625-10.53125 6.539062-20.800781 13.558593-28.328125 17.816407-19.109375 50.734376-29.210937 95.1875-29.210937 44.457032 0 77.375 10.101562 95.195313 29.210937 6.914063 7.417969 13.207031 17.921875 13.554687 28.335938-.015624 18.300781-4.949218 36.203125-14.300781 51.980468-9.234375 2.101563-18.28125 4.996094-27.027343 8.613282zm-173.46875-156.398438c1.183593-16 16.179687-28.363281 32.089843-26.5 24.761719 2.898438 49.644531 4.371094 73.957031 4.371094 35.980469 0 59.503907 6.183594 76.28125 20.050781 15.285157 12.632813 25.074219 32.082031 29.578126 58.972657-26.46875-28.121094-69.253907-33.648438-105.859376-33.648438-50.171874 0-86.191406 11.765625-107.066406 34.964844-.476562.53125-.945312 1.066406-1.394531 1.597656.394531-23.394531 1.203125-43.421875 2.414063-59.808594zm0 0"/>
        </g>
    </svg>

    <!-- USERS NEW -->
    <svg viewBox="0 0 511.997 511.997">
        <g id="users-new" class="img">
          <path d="M195.063,101.903c-4.142,0-7.5,3.358-7.5,7.5v11.028c0,4.142,3.358,7.5,7.5,7.5c4.142,0,7.5-3.358,7.5-7.5v-11.028
			C202.563,105.261,199.205,101.903,195.063,101.903z"/>
            <path d="M316.931,101.903c-4.142,0-7.5,3.358-7.5,7.5v11.028c0,4.142,3.358,7.5,7.5,7.5c4.142,0,7.5-3.358,7.5-7.5v-11.028
			C324.431,105.261,321.073,101.903,316.931,101.903z"/>
            <path d="M275.973,114.017c-3.118-2.725-7.856-2.408-10.583,0.711c-2.272,2.599-5.695,4.09-9.393,4.09
			c-3.697,0-7.121-1.491-9.393-4.09c-2.727-3.119-7.464-3.437-10.583-0.711c-3.119,2.726-3.437,7.464-0.711,10.583
			c5.121,5.858,12.661,9.218,20.687,9.218s15.566-3.36,20.687-9.218C279.41,121.481,279.092,116.743,275.973,114.017z"/>
            <path d="M423.56,278.37c0,0-13.209-21.315-13.221-21.333c-6.268-10.114-19.973-13.334-30.09-7.064l-20.775,12.875
			c-6.687,4.144-13.743,7.568-21.05,10.263c-3.476-11.502-5.402-26.305,0.063-40.691c1.934-5.09,5.11-10.11,9.441-14.919
			c34.633-38.453,44.267-101.187,22.908-149.169c-9.063-20.358-23.432-37.246-41.555-48.835C309.054,6.559,284.398,0,255.997,0
			c-31.272,0-57.898,7.918-79.138,23.536c-3.337,2.454-4.053,7.148-1.6,10.485c2.454,3.337,7.149,4.053,10.485,1.6
			C204.354,21.938,227.99,15,255.997,15c48.159,0,84.077,21.106,101.137,59.431c19.063,42.825,10.505,98.772-20.35,133.031
			c-5.579,6.194-9.723,12.799-12.318,19.631c-6.9,18.164-4.624,36.341-0.424,50.281c-0.046,0.01-0.092,0.021-0.138,0.032
			c-8.393,1.952-17.062,2.89-25.675,2.89c-0.012,0-0.025,0-0.037,0h-84.388c-0.012,0-0.025,0-0.037,0
			c-8.714-0.003-17.139-1.264-25.671-2.89c-0.047-0.011-0.094-0.021-0.142-0.032c4.2-13.941,6.476-32.117-0.424-50.281
			c-2.595-6.832-6.739-13.437-12.318-19.632c-17.195-19.091-28.161-46.305-30.085-74.663c-1.981-29.203,5.454-56.753,20.936-77.577
			c2.472-3.324,1.78-8.022-1.543-10.494c-3.325-2.472-8.022-1.78-10.494,1.543c-17.612,23.688-26.087,54.778-23.864,87.542
			c2.179,32.11,14.22,61.83,33.904,83.686c4.332,4.81,7.508,9.83,9.441,14.919c5.465,14.386,3.54,29.188,0.063,40.691
			c-7.308-2.694-14.363-6.119-21.05-10.263c0,0-20.771-12.873-20.776-12.875c-10.148-6.289-23.813-3.065-30.09,7.064
			c0,0-13.212,21.32-13.22,21.333c-6.279,10.133-3.045,23.827,7.065,30.09c14.135,8.76,28.027,17.997,43.27,24.758
			c-6.954,15.989-10.607,33.44-10.607,50.946c0,70.489,57.347,127.836,127.836,127.836c28.51,0,55.508-9.226,78.074-26.681
			c3.276-2.534,3.878-7.244,1.344-10.521c-2.535-3.277-7.245-3.878-10.521-1.344C304.979,488.858,281.155,497,255.997,497
			c-62.218,0-112.836-50.618-112.836-112.836c0-15.872,3.211-31.128,9.555-45.443c0.064,0.022,0.13,0.042,0.194,0.064
			c14.045,4.894,28.899,8.337,43.749,9.502c0.082,0.007,0.164,0.019,0.246,0.026c-6.542,10.726-10.044,23.059-10.044,35.85
			c0,38.122,31.014,69.136,69.136,69.136c38.122,0,69.136-31.014,69.136-69.136c0-12.792-3.501-25.123-10.043-35.849
			c0.11-0.01,0.219-0.024,0.329-0.035c14.7-1.372,29.082-4.596,43.067-9.291c0.264-0.091,0.531-0.172,0.795-0.264
			c6.343,14.314,9.553,29.568,9.553,45.438c0,25.75-8.489,50.016-24.549,70.176c-2.581,3.239-2.047,7.958,1.193,10.539
			c3.241,2.581,7.959,2.047,10.54-1.193c18.198-22.843,27.816-50.342,27.816-79.522c0-17.506-3.654-34.958-10.607-50.945
			c0.543,1.16,40.396-22.976,43.269-24.757C426.619,302.187,429.838,288.499,423.56,278.37z M255.997,438.299
			c-29.851,0-54.136-24.285-54.136-54.136c0-12.927,4.584-25.254,12.955-35.058h82.361c8.371,9.804,12.955,22.131,12.955,35.058
			C310.132,414.014,285.847,438.299,255.997,438.299z M408.595,295.709c-15.742,9.756-31.065,19.501-48.225,26.614
			c-0.01,0.004-0.02,0.007-0.029,0.01c-19.737,7.75-40.944,11.772-62.151,11.772h-84.388c-31.48,0-62.869-8.938-89.626-25.52
			c0,0-20.717-12.839-20.778-12.876c-3.16-1.958-4.171-6.285-2.216-9.439c0,0,13.209-21.316,13.22-21.333
			c1.915-3.09,6.23-4.204,9.439-2.216l20.776,12.876c20.651,12.82,44.881,19.699,69.185,19.699h84.388
			c24.317,0,48.516-6.891,69.186-19.699c0,0,20.762-12.867,20.775-12.875c3.085-1.912,7.431-1.024,9.439,2.216
			c0,0,13.202,21.303,13.221,21.333C412.781,289.449,411.761,293.748,408.595,295.709z"/>
        </g>
    </svg>

    <!-- USERS UPLOAD -->
    <svg viewBox="0 0 512 512">
        <g id="users-upload" class="img">
          <path d="M208.589,143.338c-4.142,0-7.5,3.357-7.5,7.5v13.128c0,4.142,3.358,7.5,7.5,7.5c4.142,0,7.5-3.358,7.5-7.5v-13.128
			C216.089,146.695,212.731,143.338,208.589,143.338z"/>
            <path d="M493.532,278.625c-1.878-3.692-6.392-5.163-10.085-3.285c-3.692,1.877-5.163,6.393-3.285,10.085
			c11.33,22.28,16.838,46.882,16.838,75.211c0,26.328-9.441,48.768-27.303,64.894c-19.217,17.349-47.473,26.52-81.712,26.52
			c-34.24,0-62.496-9.17-81.713-26.52c-17.862-16.125-27.303-38.566-27.303-64.894c0-66.288,30.33-99.431,54.7-126.062
			c4.89-5.344,9.548-10.434,13.643-15.46c28.065-3.313,52.133-7.717,72.045-13.17c0.016-0.004,0.032-0.009,0.048-0.013
			c5.416,9.54,13.634,18.523,22.899,28.65c7.302,7.981,14.854,16.235,22.158,25.928c2.493,3.308,7.195,3.969,10.503,1.476
			c3.308-2.493,3.969-7.195,1.476-10.503c-7.734-10.263-15.882-19.169-23.07-27.026c-7.628-8.338-14.479-15.829-19.151-23.037
			c10.499-3.559,19.526-7.48,27.043-11.763c2.364-1.347,3.925-3.95,3.889-6.678c-0.028-2.067-0.971-4.049-2.468-5.446
			c-0.44-0.411-0.928-0.771-1.454-1.068c-0.81-0.439-11.802-6.304-33.462-13.374c1.269-5.73,3.347-12.391,6.158-19.563
			c1.533-3.911,1.034-8.318-1.333-11.789c-2.432-3.566-6.563-5.617-10.854-5.567c-13.744,0.328-25.188,6.742-33.738,15.795
			c-9.336-9.952-21.054-15.492-33.771-15.795c-4.308-0.054-8.414,1.989-10.855,5.567c-2.541,3.725-2.704,8.26-1.108,12.377
			c-30.095-4.162-62.237-6.364-95.793-6.565c-5.106-12.101-12.243-23.432-21.234-33.494c-19.282-21.578-45.922-36.143-75.046-41.036
			c-25.629-6.378-44.192-21.698-52.99-30.279c-6.768-6.601-18.372-3.942-21.64,4.883c-2.484,6.708-4.544,17.706-0.253,32.01
			c0.264,0.878-0.141,1.772-0.94,2.08c-9.962,3.833-29.09,12.917-45.262,30.69C9.793,123.632,0,150.772,0,183.068
			c0,19.975,5.187,39.798,15.001,57.327c2.024,3.615,6.594,4.904,10.208,2.881c3.614-2.023,4.904-6.594,2.88-10.208
			C19.526,217.773,15,200.483,15,183.068c0-65.382,45.286-89.863,64.757-97.354c8.063-3.103,12.42-12.059,9.921-20.391
			c-2.564-8.548-2.073-15.229-0.87-19.863c10.58,9.874,30.627,25.373,57.808,32.127c0.259,0.072,0.525,0.131,0.794,0.176
			c41.124,6.799,73.666,34.045,86.897,69.612c7.98,21.453,8.465,45.82,1.297,67.572c-13.631,41.243-52.985,71.81-100.181,74.781
			c-33.419,2.086-67.252-10.251-90.677-34.353c-2.884-2.974-7.633-3.045-10.605-0.161c-2.973,2.885-3.045,7.633-0.161,10.605
			c8.392,8.65,18.004,16.014,28.463,21.946c3.744,15.119,10.908,30.433,18.466,46.583c9.641,20.597,20.567,43.942,24.078,67.548
			c3.698,24.864-1.154,46.971-15.269,69.57c-3.072,4.919,0.586,11.476,6.359,11.476h64.825c3.091,0,5.866-1.897,6.988-4.777
			c27.681-71.045-1.359-133.316-20.675-174.586c46.314-6.731,84.532-37.24,100.49-78.008c17.855-0.331,46.443-1.318,77.681-4.171
			c-0.918,1.007-1.844,2.021-2.784,3.047c-24.745,27.041-58.635,64.073-58.635,136.188c0,30.689,11.152,56.979,32.251,76.028
			c22.019,19.878,53.75,30.386,91.765,30.386c38.014,0,69.746-10.507,91.764-30.386C500.848,417.616,512,391.326,512,360.636
			C512,329.888,505.959,303.062,493.532,278.625z M155.689,467.943h-46.77c11.058-21.92,14.526-43.905,10.905-68.252
			c-3.833-25.774-15.253-50.173-25.329-71.7c-5.314-11.354-10.152-21.691-13.724-31.571c10.754,4.054,22.078,6.7,33.614,7.866
			c5.615,0.568,11.262,0.786,16.905,0.644c0.757,1.626,1.507,3.229,2.238,4.791C152.375,349.989,178.014,404.778,155.689,467.943z
			 M386.578,175.505c1.602-7.047,4.792-13.784,9.164-19.532c4.55-5.984,12.096-13.064,22.929-14.538
			c-2.92,7.888-5.635,16.895-6.751,25.321c-0.388,2.929-0.643,5.853-0.557,8.813h-24.798
			C386.57,175.548,386.573,175.527,386.578,175.505z M378.911,154.344c-3.88,6.836-6.461,14.167-7.592,21.095
			c-0.007,0.043-0.017,0.087-0.024,0.13h-6.679c0.165-5.361-0.696-11.695-2.58-19.08c-1.304-5.173-2.983-10.311-4.736-15.045
			C367.289,142.83,374.459,149.011,378.911,154.344z M347.458,160.017c0.162,0.63,0.317,1.262,0.466,1.895
			c1.046,4.44,1.901,9.074,1.678,13.656h-94.11c-0.012-0.192-0.052-0.685-0.056-0.74c-0.528-7.532-1.773-14.965-3.737-22.235
			C285.379,153.013,317.523,155.505,347.458,160.017z M252.476,210.48c0.049-0.206,0.087-0.415,0.135-0.622
			c1.491-6.337,2.459-12.794,2.879-19.29h162.301c-12.562,3.578-28.637,7.261-48.91,10.488c-9.12,1.452-18.316,2.68-27.483,3.738
			C316.78,207.628,287.407,209.731,252.476,210.48z"/>
        </g>
    </svg>

    <!-- DOCUMENTS -->
    <svg viewBox="0 -30 511.99876 511">
        <g id="documents" class="img">
          <path d="m343.140625 50.613281h-185.753906c-4.140625 0-7.5 3.359375-7.5 7.5 0 4.144531 3.359375 7.503907 7.5 7.503907h185.753906c4.140625 0 7.5-3.359376 7.5-7.503907 0-4.140625-3.359375-7.5-7.5-7.5zm0 0"/><path d="m343.140625 104.734375h-185.753906c-4.140625 0-7.5 3.359375-7.5 7.5 0 4.144531 3.359375 7.503906 7.5 7.503906h185.753906c4.140625 0 7.5-3.359375 7.5-7.503906 0-4.140625-3.359375-7.5-7.5-7.5zm0 0"/><path d="m254.222656 334.539062v-13.699218c0-4.144532-3.359375-7.503906-7.5-7.503906-4.144531 0-7.503906 3.359374-7.503906 7.503906v13.699218c0 4.140626 3.359375 7.5 7.503906 7.5 4.140625 0 7.5-3.359374 7.5-7.5zm0 0"/><path d="m405.597656 334.539062v-13.699218c0-4.144532-3.359375-7.503906-7.503906-7.503906-4.140625 0-7.5 3.359374-7.5 7.503906v13.699218c0 4.140626 3.359375 7.5 7.5 7.5 4.144531 0 7.503906-3.359374 7.503906-7.5zm0 0"/><path d="m322.40625 349.351562c9.445312 0 18.316406-3.949218 24.332031-10.832031 2.726563-3.117187 2.40625-7.855469-.710937-10.585937-3.121094-2.726563-7.859375-2.40625-10.585938.714844-3.167968 3.621093-7.917968 5.699218-13.035156 5.699218-5.113281 0-9.863281-2.078125-13.03125-5.699218-2.726562-3.121094-7.464844-3.441407-10.585938-.714844-3.121093 2.730468-3.4375 7.46875-.710937 10.585937 6.015625 6.882813 14.882813 10.832031 24.328125 10.832031zm0 0"/><path d="m4.839844 159.53125c-4.214844 5.582031-6.046875 12.960938-4 20.15625l75.832031 266.347656c.007813.019532.015625.035156.023437.054688.921876 3.136718 3.9375 5.386718 7.207032 5.394531h60.460937c4.144531 0 7.5-3.359375 7.5-7.503906 0-4.140625-3.355469-7.5-7.5-7.5h-49.0625l101.554688-235.175781c3.78125-8.757813 12.386719-14.414063 21.925781-14.414063h87.398438c6.230468 0 10.5625 6.625 8.101562 12.324219 0 0-7.972656 18.464844-7.984375 18.492187-2.101563 4.867188 1.597656 10.476563 6.886719 10.476563h168.992187c10.535157 0 17.832031 11.09375 13.65625 20.769531l-70.917969 164.226563c-6.109374 14.15625-20.023437 23.300781-35.4375 23.300781h-215.105468c-4.144532 0-7.503906 3.359375-7.503906 7.503906 0 4.140625 3.359374 7.5 7.503906 7.5h215.101562c21.410156 0 40.730469-12.699219 49.214844-32.355469 0 0 70.875-164.132812 70.917969-164.226562 8.386719-19.421875-6.339844-41.722656-27.429688-41.722656h-58.035156v-175.792969c0-20.339844-16.550781-36.886719-36.890625-36.886719h-35.832031c-4.144531 0-7.503907 3.359375-7.503907 7.5 0 4.144531 3.359376 7.503906 7.503907 7.503906h35.832031c12.066406 0 21.886719 9.816406 21.886719 21.882813v175.789062h-84.542969l3.460938-8.015625c6.644531-15.382812-5.109376-33.277344-21.875-33.277344h-87.402344c-15.53125 0-29.542969 9.214844-35.699219 23.472657l-91.6875 212.328125v-370.296875c0-12.066407 9.816406-21.882813 21.886719-21.882813h208.132812c4.144532 0 7.503906-3.359375 7.503906-7.503906 0-4.140625-3.359374-7.5-7.503906-7.5h-208.132812c-20.339844 0-36.890625 16.546875-36.890625 36.886719v112.78125s-53.195313 0-53.261719 0c-7.476562 0-14.074219 3.785156-18.285156 9.363281zm11.808594 8.917969c1.480468-1.960938 3.8125-3.277344 6.476562-3.277344h53.261719v225.066406s-60.988281-214.214843-61.113281-214.660156c-.734376-2.570313-.105469-5.171875 1.375-7.128906zm0 0"/>
        </g>
    </svg>

    <!-- DOCUMENTS ADD -->
    <svg viewBox="0 -13 512 512">
        <g id="documents-add" class="img">
          <path d="m406.097656 437.574219c4.144532 0 7.5-3.355469 7.5-7.5v-42.449219h42.453125c4.140625 0 7.5-3.359375 7.5-7.5s-3.359375-7.5-7.5-7.5h-42.453125v-42.449219c0-4.144531-3.355468-7.5-7.5-7.5-4.140625 0-7.5 3.355469-7.5 7.5v42.449219h-42.449218c-4.140626 0-7.5 3.359375-7.5 7.5s3.359374 7.5 7.5 7.5h42.449218v42.449219c0 4.144531 3.359375 7.5 7.5 7.5zm0 0"/><path d="m152.355469 183.496094c23.964843 0 43.460937-19.496094 43.460937-43.464844 0-23.964844-19.496094-43.460938-43.460937-43.460938-23.96875 0-43.464844 19.496094-43.464844 43.460938 0 23.96875 19.496094 43.464844 43.464844 43.464844zm0-71.925782c15.695312 0 28.460937 12.769532 28.460937 28.464844 0 15.695313-12.765625 28.460938-28.460937 28.460938-15.695313 0-28.464844-12.765625-28.464844-28.460938 0-15.695312 12.769531-28.464844 28.464844-28.464844zm0 0"/><path d="m151.785156 281.160156c-4.140625 0-7.5 3.355469-7.5 7.5v11.855469c0 4.144531 3.359375 7.5 7.5 7.5 4.144532 0 7.5-3.355469 7.5-7.5v-11.855469c0-4.144531-3.355468-7.5-7.5-7.5zm0 0"/><path d="m282.828125 281.160156c-4.144531 0-7.5 3.355469-7.5 7.5v11.855469c0 4.144531 3.355469 7.5 7.5 7.5 4.140625 0 7.5-3.355469 7.5-7.5v-11.855469c0-4.144531-3.359375-7.5-7.5-7.5zm0 0"/><path d="m238.414062 294.046875c-3.117187-2.726563-7.855468-2.410156-10.582031.707031-2.550781 2.917969-6.386719 4.59375-10.523437 4.59375-4.140625 0-7.976563-1.675781-10.527344-4.59375-2.726562-3.117187-7.460938-3.4375-10.582031-.710937-3.117188 2.726562-3.4375 7.464843-.710938 10.585937 5.398438 6.175782 13.351563 9.71875 21.820313 9.71875 8.464844 0 16.417968-3.542968 21.816406-9.71875 2.726562-3.121094 2.40625-7.859375-.710938-10.582031zm0 0"/><path d="m491.691406 442.484375c13.285156-18.203125 20.308594-39.769531 20.308594-62.359375 0-37.230469-19.316406-70.035156-48.449219-88.921875v-244.835937c0-25.566407-20.800781-46.367188-46.367187-46.367188h-274.320313c-4.140625 0-7.5 3.359375-7.5 7.5s3.359375 7.5 7.5 7.5h274.316407c17.296874 0 31.367187 14.070312 31.367187 31.367188v236.722656c-4.929687-2.15625-10.003906-3.820313-15.175781-5.296875-6.472656-1.710938-13.089844-2.828125-19.773438-3.300781v-217.042969c0-4.140625-3.359375-7.5-7.5-7.5h-348.648437c-4.140625 0-7.5 3.359375-7.5 7.5v322.675781c0 4.140625 3.359375 7.5 7.5 7.5h243.019531c.84375 12.023438 3.765625 23.90625 8.59375 34.949219h-262.695312c-17.296876 0-31.367188-14.070313-31.367188-31.367188v-344.839843c0-17.296876 14.070312-31.367188 31.367188-31.367188h66.496093c4.144531 0 7.5-3.359375 7.5-7.5s-3.355469-7.5-7.5-7.5h-66.496093c-25.566407 0-46.367188 20.800781-46.367188 46.367188v344.839843c0 25.566407 20.800781 46.367188 46.367188 46.367188h270.808593c18.886719 29.136719 51.691407 48.453125 88.921875 48.453125 22.925782 0 44.746094-7.210938 63.101563-20.851563 3.324219-2.46875 4.015625-7.167969 1.546875-10.492187-2.472656-3.324219-7.167969-4.015625-10.492188-1.546875-15.75 11.703125-34.476562 17.890625-54.15625 17.890625-49.246094 0-90.902344-41.679688-90.902344-90.902344 0-45.347656 35.082032-84.804688 80.242188-90.257812 14.429688-1.742188 30.355469-.214844 43.953125 5.667968.007813.003906.015625.011719.023437.011719 33.691407 13.320313 57.585938 46.210937 57.585938 84.578125 0 19.390625-6.023438 37.898438-17.425781 53.519531-2.441407 3.34375-1.707031 8.035157 1.640625 10.476563 3.34375 2.441406 8.035156 1.710937 10.476562-1.636719zm-93.09375-377.535156v167.867187s-47.105468-47.113281-47.125-47.132812c-12.734375-12.738282-33.265625-14.8125-48.289062-4.886719 0 0-78.757813 52.023437-78.796875 52.050781-7.785157 5.144532-18.152344 5.089844-25.890625-.105468-.257813-.171876-.519532-.335938-.773438-.519532 0 0-19.914062-14.53125-19.914062-14.535156-12.011719-8.765625-28.484375-9.738281-41.441406-2.449219l-71.417969 40.175781v-190.464843zm-333.648437 207.675781 78.773437-44.3125c7.90625-4.441406 17.917969-3.851562 25.242188 1.492188 0 0 19.910156 14.535156 19.914062 14.535156 12.792969 9.335937 30.566406 9.75 43.777344 1.023437l78.792969-52.050781c9.164062-6.054688 21.664062-4.773438 29.414062 2.976562l57.734375 57.742188v20.457031c-.070312.003907-.136718.015625-.207031.019531-51.453125 3.640626-94.203125 46.558594-97.910156 97.910157-.003907.070312-.015625.140625-.019531.207031h-235.511719zm0 0"/>
        </g>
    </svg>

    <!-- DOCUMENTS EDIT -->
    <svg viewBox="0 -3 511.99947 511">
        <g id="documents-edit" class="img">
          <path d="m278.578125 233.914062c4.457031 4.453126 10.546875 6.808594 17.613281 6.808594 10.785156 0 22.875-5.648437 32.335938-15.113281 7.378906-7.378906 12.46875-16.308594 14.335937-25.144531 2.078125-9.851563-.121093-18.890625-6.03125-24.804688-4.457031-4.453125-10.546875-6.808594-17.613281-6.808594-10.785156 0-22.875 5.648438-32.335938 15.109376-16.335937 16.335937-19.980468 38.273437-8.304687 49.953124zm40.636719-50.058593c3.046875 0 5.402344.8125 7.003906 2.414062 3.089844 3.09375 2.554688 8.28125 1.960938 11.097657-1.253907 5.9375-4.992188 12.363281-10.261719 17.632812-6.609375 6.609375-14.9375 10.71875-21.726563 10.71875-3.042968 0-5.402344-.8125-7.003906-2.417969-4.832031-4.828125-2.609375-17.816406 8.304688-28.726562 6.609374-6.609375 14.933593-10.71875 21.722656-10.71875zm0 0"/><path d="m128.398438 110.089844v-10.511719c0-4.144531-3.359376-7.503906-7.5-7.503906-4.144532 0-7.503907 3.359375-7.503907 7.503906v10.511719c0 4.144531 3.359375 7.503906 7.503907 7.503906 4.140624 0 7.5-3.359375 7.5-7.503906zm0 0"/><path d="m244.558594 110.089844v-10.511719c0-4.144531-3.359375-7.503906-7.503906-7.503906-4.140626 0-7.5 3.359375-7.5 7.503906v10.511719c0 4.144531 3.359374 7.503906 7.5 7.503906 4.144531 0 7.503906-3.359375 7.503906-7.503906zm0 0"/><path d="m178.976562 123.203125c7.753907 0 15.035157-3.246094 19.984376-8.910156 2.726562-3.117188 2.410156-7.855469-.710938-10.585938-3.121094-2.726562-7.859375-2.40625-10.585938.710938-2.097656 2.402343-5.265624 3.777343-8.6875 3.777343-3.421874 0-6.585937-1.375-8.6875-3.777343-2.726562-3.117188-7.464843-3.4375-10.585937-.710938-3.117187 2.726563-3.4375 7.464844-.710937 10.585938 4.949218 5.664062 12.234374 8.910156 19.984374 8.910156zm0 0"/><path d="m371.007812 248.761719v100.242187c0 4.144532 3.359376 7.503906 7.503907 7.503906 4.140625 0 7.5-3.359374 7.5-7.503906v-115.25l27.675781-27.671875c.007812.003907.015625.007813.023438.011719 6.746093 3.617188 14.964843 4.035156 22.0625 1.171875v256.648437c0 15.1875-12.355469 27.542969-27.546876 27.542969h-365.675781c-15.1875 0-27.546875-12.355469-27.546875-27.542969v-234.949218c0-4.144532-3.355468-7.503906-7.5-7.503906-4.144531 0-7.503906 3.359374-7.503906 7.503906v234.949218c0 23.460938 19.085938 42.546876 42.550781 42.546876h365.675781c23.460938 0 42.550782-19.085938 42.550782-42.546876v-268.773437l6.160156-6.160156c8.292969-8.292969 9.796875-20.835938 4.523438-30.671875 0 0 37.492187-37.492188 37.515624-37.519532 17.371094-17.371093 17.355469-46.375 0-63.730468 0 0-43.515624-43.515625-43.546874-43.542969-17.359376-17.363281-46.386719-17.34375-63.730469 0l-37.507813 37.507813c-3.738281-2.015626-7.9375-3.085938-12.300781-3.085938-6.941406 0-13.46875 2.707031-18.378906 7.613281l-12.570313 12.570313c-.128906.128906-.246094.261718-.371094.390625h-268.019531c-23.464843 0-42.550781 19.089843-42.550781 42.550781v87.890625c0 4.140625 3.359375 7.5 7.503906 7.5 4.144532 0 7.5-3.359375 7.5-7.5v-87.890625c0-15.1875 12.359375-27.546875 27.546875-27.546875h260.949219c0 .015625 0 .03125-.003906.046875-.667969 5.179688.445312 10.65625 2.914062 15.238281l-34.472656 34.476563h-199.667969c-4.144531 0-7.503906 3.359375-7.503906 7.5v293.414062c0 4.144532 3.359375 7.503906 7.503906 7.503906h306.242188c4.140625 0 7.5-3.359374 7.5-7.503906v-55.179687c0-4.140625-3.359375-7.5-7.5-7.5-4.144531 0-7.503907 3.359375-7.503907 7.5v47.679687h-291.238281v-278.410156h177.160157s-111.011719 111.011719-111.019532 111.019531c-.78125.832031-1.46875 1.75-1.867187 2.832031 0 0-31.476563 84.773438-31.519531 84.890626-5.804688 15.632812-3.738282 32.417968 8.394531 44.550781.007812.007812.019531.019531.03125.027343 9.359375 9.820313 24.0625 13.792969 37.21875 10.988282.355469-.074219 14.488281-5.292969 14.488281-5.292969l77.703125-28.851563c1.050781-.390624 2.050781-1.046874 2.824219-1.859374m149.125-342.460938c11.59375-11.59375 30.929687-11.582031 42.511718 0 0 0 43.496094 43.496094 43.546876 43.542969 11.554687 11.558593 11.527343 30.984375 0 42.511719l-36.734376 36.734374-86.054687-86.058593s36.695313-36.695313 36.730469-36.730469zm-68.1875 42.039062c4.226562-4.226562 11.324218-4.21875 15.542968 0l96.664063 96.664063c4.285156 4.285156 4.285156 11.257813 0 15.539063 0 0-12.570313 12.570312-12.570313 12.570312-4.160156 4.164062-11.296874 4.246094-15.539062 0 0 0-96.667969-96.664062-96.667969-96.664062-4.183593-4.167969-4.199219-11.371094 0-15.539063 0 0 12.558594-12.5625 12.570313-12.570313zm-86.375 284.636719-86.054688-86.054687 154.554688-154.558594 86.058594 86.054688c-11.15625 11.15625-154.558594 154.558593-154.558594 154.558593zm-93.222656 37.21875c-7.914063 1.527344-17.710938-.707031-23.046876-7.109375-5.914062-5.949218-8.5625-14.605468-7.023437-22.84375.007813-.039062.011719-.074218.019531-.109375l5.878906-15.835937 40.015626 40.019531s-15.828126 5.878906-15.84375 5.878906zm-18.425782-61.371093 17.945313-48.332032 80.128906 80.132813-48.328125 17.945312zm0 0"/>
        </g>
    </svg>

    <!-- METRICS SUMMARY -->
    <svg viewBox="0 0 512.001 512.001">
        <g id="metrics-summary" class="img">
         <path d="M422.523,50.423h-77.615c-0.755-9.72-8.888-17.402-18.798-17.402h-30.835C291.747,14.249,275.231,0,255.451,0
			c-19.781,0-36.297,14.249-39.825,33.021H184.79c-9.91,0-18.043,7.683-18.798,17.402H89.479c-11.357,0-20.598,9.24-20.598,20.598
			v420.382c0,11.357,9.24,20.598,20.598,20.598h333.044c11.357,0,20.598-9.24,20.598-20.598V71.021
			C443.12,59.663,433.88,50.423,422.523,50.423z M184.79,120.288h103.33c4.142,0,7.5-3.357,7.5-7.5c0-4.143-3.358-7.5-7.5-7.5
			H184.79c-2.135,0-3.873-1.737-3.873-3.872v-6.011c0-0.007,0.001-0.013,0.001-0.019s-0.001-0.013-0.001-0.019V57.933
			c0-0.003,0-0.006,0-0.01c0-0.004,0-0.006,0-0.01v-6.021c0-2.135,1.737-3.872,3.873-3.872h37.639c4.142,0,7.5-3.357,7.5-7.5
			c0-14.072,11.448-25.52,25.521-25.52c14.072,0,25.52,11.448,25.52,25.521c0,4.143,3.358,7.5,7.5,7.5h37.639
			c2.135,0,3.873,1.737,3.873,3.872v6.021c0,0.003,0,0.006,0,0.01c0,0.004,0,0.006,0,0.01v37.443c0,0.003,0,0.006,0,0.01
			c0,0.004,0,0.006,0,0.01v6.021c0,2.135-1.737,3.872-3.873,3.872h-9.989c-4.142,0-7.5,3.357-7.5,7.5s3.358,7.5,7.5,7.5h9.989
			c9.91,0,18.043-7.683,18.798-17.402h41.81c2.173,0,3.94,1.768,3.94,3.94V349.5H299.56c-10.444,0-18.94,8.497-18.94,18.94v91.097
			H125.284c-2.173,0-3.94-1.768-3.94-3.939V106.826c0-2.173,1.768-3.94,3.94-3.94h40.709
			C166.747,112.605,174.88,120.288,184.79,120.288z M380.051,364.501l-84.43,84.43v-80.49c0-2.173,1.768-3.94,3.94-3.94H380.051z
			 M428.123,491.402h-0.003c0,3.087-2.511,5.598-5.598,5.598H89.479c-3.086,0-5.598-2.511-5.598-5.598V71.021
			c0-3.087,2.511-5.598,5.598-5.598h76.439v22.463h-40.634c-10.444,0-18.94,8.497-18.94,18.94v348.771
			c0,10.443,8.497,18.939,18.94,18.939H288.12c0.018,0,0.036-0.003,0.054-0.003c0.229-0.002,0.458-0.012,0.686-0.035
			c0.162-0.016,0.32-0.044,0.479-0.07c0.081-0.013,0.163-0.021,0.243-0.037c0.185-0.037,0.365-0.085,0.545-0.135
			c0.054-0.015,0.109-0.026,0.163-0.042c0.182-0.055,0.358-0.121,0.533-0.188c0.052-0.02,0.106-0.036,0.158-0.058
			c0.168-0.07,0.331-0.149,0.493-0.23c0.057-0.029,0.117-0.053,0.174-0.083c0.152-0.081,0.297-0.172,0.442-0.263
			c0.063-0.04,0.129-0.075,0.192-0.116c0.146-0.098,0.285-0.205,0.423-0.312c0.056-0.043,0.115-0.082,0.169-0.127
			c0.192-0.158,0.377-0.324,0.553-0.5l110.033-110.033c0.001-0.001,0.002-0.002,0.003-0.003c0.235-0.236,0.449-0.492,0.651-0.757
			c0.045-0.06,0.09-0.119,0.134-0.179c0.192-0.267,0.37-0.544,0.526-0.835c0.01-0.02,0.019-0.04,0.029-0.06
			c0.144-0.276,0.268-0.563,0.378-0.858c0.022-0.059,0.044-0.118,0.065-0.177c0.108-0.313,0.2-0.633,0.266-0.964
			c0.002-0.012,0.003-0.025,0.006-0.037c0.058-0.301,0.093-0.609,0.115-0.921c0.006-0.088,0.01-0.175,0.013-0.263
			c0.003-0.083,0.013-0.165,0.013-0.249V106.826c0-10.443-8.497-18.94-18.94-18.94h-41.735V65.423h77.541
			c3.086,0,5.598,2.511,5.598,5.598V491.402z"/>

		<path d="M211.453,215.003c-3.591-2.066-8.176-0.827-10.24,2.765c-1.828,3.181-5.239,5.156-8.901,5.156
			c-3.662,0-7.073-1.977-8.902-5.157c-2.064-3.593-6.65-4.83-10.24-2.765c-3.591,2.064-4.829,6.648-2.765,10.239
			c4.497,7.823,12.891,12.683,21.907,12.683c9.016,0,17.409-4.859,21.906-12.682C216.281,221.651,215.044,217.067,211.453,215.003z"
			/>

		<path d="M338.831,215.003c-3.591-2.066-8.176-0.827-10.24,2.765c-1.828,3.181-5.239,5.156-8.901,5.156s-7.073-1.977-8.901-5.157
			c-2.064-3.593-6.65-4.83-10.24-2.765c-3.591,2.064-4.829,6.648-2.765,10.239c4.497,7.823,12.891,12.683,21.906,12.683
			c9.016,0,17.41-4.859,21.906-12.682C343.659,221.651,342.422,217.067,338.831,215.003z"/>
	
		<path d="M273.2,223.322h-34.397c-4.142,0-7.5,3.357-7.5,7.5v12.898c-0.001,13.619,11.079,24.699,24.698,24.699
			s24.699-11.08,24.699-24.699v-12.898C280.7,226.679,277.341,223.322,273.2,223.322z M265.698,243.719
			c0,5.349-4.351,9.699-9.699,9.699c-5.348,0-9.699-4.351-9.699-9.699v-5.398h0.001h19.397V243.719z"/>
	
		<path d="M325.367,245.607h-11.355c-4.142,0-7.5,3.357-7.5,7.5s3.358,7.5,7.5,7.5h11.355c4.142,0,7.5-3.357,7.5-7.5
			S329.51,245.607,325.367,245.607z"/>
	
		<path d="M197.989,245.607h-11.355c-4.142,0-7.5,3.357-7.5,7.5s3.358,7.5,7.5,7.5h11.355c4.142,0,7.5-3.357,7.5-7.5
			S202.13,245.607,197.989,245.607z"/>
	
		<path d="M255.451,23.288c-9.502,0-17.232,7.73-17.232,17.232c0,9.501,7.73,17.231,17.232,17.231
			c9.501,0,17.232-7.73,17.232-17.231C272.682,31.019,264.951,23.288,255.451,23.288z M255.451,42.752
			c-1.231,0-2.232-1.001-2.232-2.231c0-1.231,1.001-2.232,2.232-2.232c1.23,0,2.232,1.001,2.232,2.232
			C257.682,41.751,256.68,42.752,255.451,42.752z"/>
        </g>
    </svg>

    <!-- CONFIRM -->
    <svg viewBox="0 0 512 512.00022">
        <g id="confirm" class="img">
         <path d="m164.34375 235.777344c-4.140625 0-7.5 3.359375-7.5 7.5v16.589844c0 4.140624 3.359375 7.5 7.5 7.5 4.144531 0 7.5-3.359376 7.5-7.5v-16.589844c0-4.140625-3.355469-7.5-7.5-7.5zm0 0"/><path d="m347.65625 235.777344c-4.144531 0-7.5 3.359375-7.5 7.5v16.589844c0 4.140624 3.355469 7.5 7.5 7.5 4.140625 0 7.5-3.359376 7.5-7.5v-16.589844c0-4.140625-3.359375-7.5-7.5-7.5zm0 0"/><path d="m283.558594 253.066406c-3.121094-2.726562-7.859375-2.410156-10.585938.710938-4.132812 4.730468-10.320312 7.445312-16.972656 7.445312s-12.839844-2.714844-16.976562-7.445312c-2.726563-3.121094-7.464844-3.4375-10.582032-.710938-3.117187 2.722656-3.4375 7.460938-.710937 10.582032 6.984375 7.988281 17.289062 12.574218 28.269531 12.574218s21.285156-4.585937 28.269531-12.574218c2.726563-3.117188 2.40625-7.855469-.710937-10.582032zm0 0"/><path d="m500.472656 181.429688c-32.984375-106.105469-132.316406-181.429688-244.472656-181.429688-60.539062 0-119.285156 21.523438-165.40625 60.605469-57.984375 46.398437-90.59375 121.792969-90.59375 195.394531 0 137.71875 114.203125 253.710938 251.804688 255.964844 1.398437.023437 2.796874.03125 4.195312.035156 110.9375.152344 213.015625-75.773438 245.089844-181.828125 7.238281-23.949219 10.910156-48.902344 10.910156-74.171875 0-25.175781-4.007812-50.386719-11.527344-74.570312zm-485.472656 74.570312c0-21.925781 2.933594-43.597656 8.726562-64.5h464.546876c5.792968 20.902344 8.726562 42.574219 8.726562 64.5s-2.933594 43.597656-8.726562 64.5h-464.546876c-5.792968-20.902344-8.726562-42.574219-8.726562-64.5zm83.214844-182.171875h67.621094c4.140624 0 7.5-3.355469 7.5-7.5 0-4.140625-3.359376-7.5-7.5-7.5h-48.433594c40.390625-28.390625 88.847656-43.828125 138.597656-43.828125s98.207031 15.4375 138.597656 43.828125h-198.761718c-4.144532 0-7.5 3.359375-7.5 7.5 0 4.144531 3.355468 7.5 7.5 7.5h217.949218c14.976563 12.980469 28.246094 27.679687 39.589844 43.84375h-394.75c11.34375-16.164063 24.613281-30.863281 39.589844-43.84375zm-49.308594 58.84375h414.1875c8.296875 13.894531 15.160156 28.585937 20.488281 43.828125h-455.160156c5.324219-15.242188 12.1875-29.933594 20.484375-43.828125zm207.09375 364.328125c-49.75 0-98.207031-15.4375-138.597656-43.828125h277.195312c-40.390625 28.390625-88.847656 43.828125-138.597656 43.828125zm207.09375-117.671875h-63.257812c-4.144532 0-7.5 3.359375-7.5 7.5 0 4.144531 3.355468 7.5 7.5 7.5h53.539062c-11.34375 16.164063-24.613281 30.863281-39.589844 43.84375h-315.570312c-14.976563-12.980469-28.246094-27.679687-39.589844-43.84375h311.210938c4.140624 0 7.5-3.355469 7.5-7.5 0-4.140625-3.359376-7.5-7.5-7.5h-320.929688c-8.292969-13.894531-15.160156-28.585937-20.484375-43.828125h455.160156c-5.328125 15.242188-12.191406 29.933594-20.488281 43.828125zm0 0"/>
        </g>
    </svg>

    <!-- ADD -->
    <svg viewBox="0 0 16 16">
        <g id="add" class="img">
            <path id="ic_add_24px" d="M19,13H13v6H11V13H5V11h6V5h2v6h6Z" transform="translate(-4 -4)" fill="#180d5b" stroke="#fff" stroke-width="2"/>
        </g>
    </svg>

    <!-- CLOSE -->
    <svg viewBox="0 0 16 4">
        <g id="close" class="img" transform="translate(-395 -538)">
        <path d="M19,13H5V11H19Z" transform="translate(391 528)" fill="#180d5b" stroke="#fff" stroke-width="2"/>
        </g>
    </svg>

    <!-- BACKGROUND -->
    <svg viewBox="0 0 600 400">
        <g id="bg" class="img">
            <rect x="-1.86" y="-2.28" fill="#fff"  width="683.78" height="408.4"/>
            <path fill="#180D5B" d="M330.79,202.06l90.26,53.53c5.74,3.4,5.69,11.73-0.09,15.06l-235.1,135.47h496.06V-2.28h-55.36L330.54,187.21
            C325.07,190.71,325.21,198.75,330.79,202.06z"/>
            
        </g>
    </svg>




</svg>